%TF.GenerationSoftware,KiCad,Pcbnew,7.0.6*%
%TF.CreationDate,2023-09-17T17:39:24+01:00*%
%TF.ProjectId,working,776f726b-696e-4672-9e6b-696361645f70,rev?*%
%TF.SameCoordinates,Original*%
%TF.FileFunction,Legend,Top*%
%TF.FilePolarity,Positive*%
%FSLAX46Y46*%
G04 Gerber Fmt 4.6, Leading zero omitted, Abs format (unit mm)*
G04 Created by KiCad (PCBNEW 7.0.6) date 2023-09-17 17:39:24*
%MOMM*%
%LPD*%
G01*
G04 APERTURE LIST*
%ADD10C,0.150000*%
%ADD11C,0.120000*%
G04 APERTURE END LIST*
D10*
X-17045180Y-5476189D02*
X-18045180Y-5476189D01*
X-17140419Y-4428571D02*
X-17092800Y-4476190D01*
X-17092800Y-4476190D02*
X-17045180Y-4619047D01*
X-17045180Y-4619047D02*
X-17045180Y-4714285D01*
X-17045180Y-4714285D02*
X-17092800Y-4857142D01*
X-17092800Y-4857142D02*
X-17188038Y-4952380D01*
X-17188038Y-4952380D02*
X-17283276Y-4999999D01*
X-17283276Y-4999999D02*
X-17473752Y-5047618D01*
X-17473752Y-5047618D02*
X-17616609Y-5047618D01*
X-17616609Y-5047618D02*
X-17807085Y-4999999D01*
X-17807085Y-4999999D02*
X-17902323Y-4952380D01*
X-17902323Y-4952380D02*
X-17997561Y-4857142D01*
X-17997561Y-4857142D02*
X-18045180Y-4714285D01*
X-18045180Y-4714285D02*
X-18045180Y-4619047D01*
X-18045180Y-4619047D02*
X-17997561Y-4476190D01*
X-17997561Y-4476190D02*
X-17949942Y-4428571D01*
X-17949942Y-4047618D02*
X-17997561Y-3999999D01*
X-17997561Y-3999999D02*
X-18045180Y-3904761D01*
X-18045180Y-3904761D02*
X-18045180Y-3666666D01*
X-18045180Y-3666666D02*
X-17997561Y-3571428D01*
X-17997561Y-3571428D02*
X-17949942Y-3523809D01*
X-17949942Y-3523809D02*
X-17854704Y-3476190D01*
X-17854704Y-3476190D02*
X-17759466Y-3476190D01*
X-17759466Y-3476190D02*
X-17616609Y-3523809D01*
X-17616609Y-3523809D02*
X-17045180Y-4095237D01*
X-17045180Y-4095237D02*
X-17045180Y-3476190D01*
X-1962800Y-8833332D02*
X-1915180Y-8690475D01*
X-1915180Y-8690475D02*
X-1915180Y-8452380D01*
X-1915180Y-8452380D02*
X-1962800Y-8357142D01*
X-1962800Y-8357142D02*
X-2010419Y-8309523D01*
X-2010419Y-8309523D02*
X-2105657Y-8261904D01*
X-2105657Y-8261904D02*
X-2200895Y-8261904D01*
X-2200895Y-8261904D02*
X-2296133Y-8309523D01*
X-2296133Y-8309523D02*
X-2343752Y-8357142D01*
X-2343752Y-8357142D02*
X-2391371Y-8452380D01*
X-2391371Y-8452380D02*
X-2438990Y-8642856D01*
X-2438990Y-8642856D02*
X-2486609Y-8738094D01*
X-2486609Y-8738094D02*
X-2534228Y-8785713D01*
X-2534228Y-8785713D02*
X-2629466Y-8833332D01*
X-2629466Y-8833332D02*
X-2724704Y-8833332D01*
X-2724704Y-8833332D02*
X-2819942Y-8785713D01*
X-2819942Y-8785713D02*
X-2867561Y-8738094D01*
X-2867561Y-8738094D02*
X-2915180Y-8642856D01*
X-2915180Y-8642856D02*
X-2915180Y-8404761D01*
X-2915180Y-8404761D02*
X-2867561Y-8261904D01*
X-2915180Y-7928570D02*
X-1915180Y-7690475D01*
X-1915180Y-7690475D02*
X-2629466Y-7499999D01*
X-2629466Y-7499999D02*
X-1915180Y-7309523D01*
X-1915180Y-7309523D02*
X-2915180Y-7071428D01*
X-2819942Y-6738094D02*
X-2867561Y-6690475D01*
X-2867561Y-6690475D02*
X-2915180Y-6595237D01*
X-2915180Y-6595237D02*
X-2915180Y-6357142D01*
X-2915180Y-6357142D02*
X-2867561Y-6261904D01*
X-2867561Y-6261904D02*
X-2819942Y-6214285D01*
X-2819942Y-6214285D02*
X-2724704Y-6166666D01*
X-2724704Y-6166666D02*
X-2629466Y-6166666D01*
X-2629466Y-6166666D02*
X-2486609Y-6214285D01*
X-2486609Y-6214285D02*
X-1915180Y-6785713D01*
X-1915180Y-6785713D02*
X-1915180Y-6166666D01*
X-10715180Y-18833333D02*
X-10000895Y-18833333D01*
X-10000895Y-18833333D02*
X-9858038Y-18880952D01*
X-9858038Y-18880952D02*
X-9762800Y-18976190D01*
X-9762800Y-18976190D02*
X-9715180Y-19119047D01*
X-9715180Y-19119047D02*
X-9715180Y-19214285D01*
X-10381847Y-17928571D02*
X-9715180Y-17928571D01*
X-10762800Y-18166666D02*
X-10048514Y-18404761D01*
X-10048514Y-18404761D02*
X-10048514Y-17785714D01*
X-18375180Y5666666D02*
X-17660895Y5666666D01*
X-17660895Y5666666D02*
X-17518038Y5619047D01*
X-17518038Y5619047D02*
X-17422800Y5523809D01*
X-17422800Y5523809D02*
X-17375180Y5380952D01*
X-17375180Y5380952D02*
X-17375180Y5285714D01*
X-18375180Y6047619D02*
X-18375180Y6666666D01*
X-18375180Y6666666D02*
X-17994228Y6333333D01*
X-17994228Y6333333D02*
X-17994228Y6476190D01*
X-17994228Y6476190D02*
X-17946609Y6571428D01*
X-17946609Y6571428D02*
X-17898990Y6619047D01*
X-17898990Y6619047D02*
X-17803752Y6666666D01*
X-17803752Y6666666D02*
X-17565657Y6666666D01*
X-17565657Y6666666D02*
X-17470419Y6619047D01*
X-17470419Y6619047D02*
X-17422800Y6571428D01*
X-17422800Y6571428D02*
X-17375180Y6476190D01*
X-17375180Y6476190D02*
X-17375180Y6190476D01*
X-17375180Y6190476D02*
X-17422800Y6095238D01*
X-17422800Y6095238D02*
X-17470419Y6047619D01*
X18666666Y-7784819D02*
X18666666Y-8499104D01*
X18666666Y-8499104D02*
X18619047Y-8641961D01*
X18619047Y-8641961D02*
X18523809Y-8737200D01*
X18523809Y-8737200D02*
X18380952Y-8784819D01*
X18380952Y-8784819D02*
X18285714Y-8784819D01*
X19666666Y-8784819D02*
X19095238Y-8784819D01*
X19380952Y-8784819D02*
X19380952Y-7784819D01*
X19380952Y-7784819D02*
X19285714Y-7927676D01*
X19285714Y-7927676D02*
X19190476Y-8022914D01*
X19190476Y-8022914D02*
X19095238Y-8070533D01*
X-1333332Y-16707200D02*
X-1190475Y-16754819D01*
X-1190475Y-16754819D02*
X-952380Y-16754819D01*
X-952380Y-16754819D02*
X-857142Y-16707200D01*
X-857142Y-16707200D02*
X-809523Y-16659580D01*
X-809523Y-16659580D02*
X-761904Y-16564342D01*
X-761904Y-16564342D02*
X-761904Y-16469104D01*
X-761904Y-16469104D02*
X-809523Y-16373866D01*
X-809523Y-16373866D02*
X-857142Y-16326247D01*
X-857142Y-16326247D02*
X-952380Y-16278628D01*
X-952380Y-16278628D02*
X-1142856Y-16231009D01*
X-1142856Y-16231009D02*
X-1238094Y-16183390D01*
X-1238094Y-16183390D02*
X-1285713Y-16135771D01*
X-1285713Y-16135771D02*
X-1333332Y-16040533D01*
X-1333332Y-16040533D02*
X-1333332Y-15945295D01*
X-1333332Y-15945295D02*
X-1285713Y-15850057D01*
X-1285713Y-15850057D02*
X-1238094Y-15802438D01*
X-1238094Y-15802438D02*
X-1142856Y-15754819D01*
X-1142856Y-15754819D02*
X-904761Y-15754819D01*
X-904761Y-15754819D02*
X-761904Y-15802438D01*
X-428570Y-15754819D02*
X-190475Y-16754819D01*
X-190475Y-16754819D02*
X0Y-16040533D01*
X0Y-16040533D02*
X190476Y-16754819D01*
X190476Y-16754819D02*
X428572Y-15754819D01*
X1333333Y-16754819D02*
X761905Y-16754819D01*
X1047619Y-16754819D02*
X1047619Y-15754819D01*
X1047619Y-15754819D02*
X952381Y-15897676D01*
X952381Y-15897676D02*
X857143Y-15992914D01*
X857143Y-15992914D02*
X761905Y-16040533D01*
X9869580Y-3444285D02*
X9917200Y-3491904D01*
X9917200Y-3491904D02*
X9964819Y-3634761D01*
X9964819Y-3634761D02*
X9964819Y-3729999D01*
X9964819Y-3729999D02*
X9917200Y-3872856D01*
X9917200Y-3872856D02*
X9821961Y-3968094D01*
X9821961Y-3968094D02*
X9726723Y-4015713D01*
X9726723Y-4015713D02*
X9536247Y-4063332D01*
X9536247Y-4063332D02*
X9393390Y-4063332D01*
X9393390Y-4063332D02*
X9202914Y-4015713D01*
X9202914Y-4015713D02*
X9107676Y-3968094D01*
X9107676Y-3968094D02*
X9012438Y-3872856D01*
X9012438Y-3872856D02*
X8964819Y-3729999D01*
X8964819Y-3729999D02*
X8964819Y-3634761D01*
X8964819Y-3634761D02*
X9012438Y-3491904D01*
X9012438Y-3491904D02*
X9060057Y-3444285D01*
X8964819Y-2825237D02*
X8964819Y-2634761D01*
X8964819Y-2634761D02*
X9012438Y-2539523D01*
X9012438Y-2539523D02*
X9107676Y-2444285D01*
X9107676Y-2444285D02*
X9298152Y-2396666D01*
X9298152Y-2396666D02*
X9631485Y-2396666D01*
X9631485Y-2396666D02*
X9821961Y-2444285D01*
X9821961Y-2444285D02*
X9917200Y-2539523D01*
X9917200Y-2539523D02*
X9964819Y-2634761D01*
X9964819Y-2634761D02*
X9964819Y-2825237D01*
X9964819Y-2825237D02*
X9917200Y-2920475D01*
X9917200Y-2920475D02*
X9821961Y-3015713D01*
X9821961Y-3015713D02*
X9631485Y-3063332D01*
X9631485Y-3063332D02*
X9298152Y-3063332D01*
X9298152Y-3063332D02*
X9107676Y-3015713D01*
X9107676Y-3015713D02*
X9012438Y-2920475D01*
X9012438Y-2920475D02*
X8964819Y-2825237D01*
X9964819Y-1968094D02*
X8964819Y-1968094D01*
X8964819Y-1968094D02*
X9964819Y-1396666D01*
X9964819Y-1396666D02*
X8964819Y-1396666D01*
X8964819Y-1015713D02*
X8964819Y-396666D01*
X8964819Y-396666D02*
X9345771Y-729999D01*
X9345771Y-729999D02*
X9345771Y-587142D01*
X9345771Y-587142D02*
X9393390Y-491904D01*
X9393390Y-491904D02*
X9441009Y-444285D01*
X9441009Y-444285D02*
X9536247Y-396666D01*
X9536247Y-396666D02*
X9774342Y-396666D01*
X9774342Y-396666D02*
X9869580Y-444285D01*
X9869580Y-444285D02*
X9917200Y-491904D01*
X9917200Y-491904D02*
X9964819Y-587142D01*
X9964819Y-587142D02*
X9964819Y-872856D01*
X9964819Y-872856D02*
X9917200Y-968094D01*
X9917200Y-968094D02*
X9869580Y-1015713D01*
X-15666666Y1475180D02*
X-15999999Y1951371D01*
X-16238094Y1475180D02*
X-16238094Y2475180D01*
X-16238094Y2475180D02*
X-15857142Y2475180D01*
X-15857142Y2475180D02*
X-15761904Y2427561D01*
X-15761904Y2427561D02*
X-15714285Y2379942D01*
X-15714285Y2379942D02*
X-15666666Y2284704D01*
X-15666666Y2284704D02*
X-15666666Y2141847D01*
X-15666666Y2141847D02*
X-15714285Y2046609D01*
X-15714285Y2046609D02*
X-15761904Y1998990D01*
X-15761904Y1998990D02*
X-15857142Y1951371D01*
X-15857142Y1951371D02*
X-16238094Y1951371D01*
X-15333332Y2475180D02*
X-14714285Y2475180D01*
X-14714285Y2475180D02*
X-15047618Y2094228D01*
X-15047618Y2094228D02*
X-14904761Y2094228D01*
X-14904761Y2094228D02*
X-14809523Y2046609D01*
X-14809523Y2046609D02*
X-14761904Y1998990D01*
X-14761904Y1998990D02*
X-14714285Y1903752D01*
X-14714285Y1903752D02*
X-14714285Y1665657D01*
X-14714285Y1665657D02*
X-14761904Y1570419D01*
X-14761904Y1570419D02*
X-14809523Y1522800D01*
X-14809523Y1522800D02*
X-14904761Y1475180D01*
X-14904761Y1475180D02*
X-15190475Y1475180D01*
X-15190475Y1475180D02*
X-15285713Y1522800D01*
X-15285713Y1522800D02*
X-15333332Y1570419D01*
X4789580Y1558333D02*
X4837200Y1510714D01*
X4837200Y1510714D02*
X4884819Y1367857D01*
X4884819Y1367857D02*
X4884819Y1272619D01*
X4884819Y1272619D02*
X4837200Y1129762D01*
X4837200Y1129762D02*
X4741961Y1034524D01*
X4741961Y1034524D02*
X4646723Y986905D01*
X4646723Y986905D02*
X4456247Y939286D01*
X4456247Y939286D02*
X4313390Y939286D01*
X4313390Y939286D02*
X4122914Y986905D01*
X4122914Y986905D02*
X4027676Y1034524D01*
X4027676Y1034524D02*
X3932438Y1129762D01*
X3932438Y1129762D02*
X3884819Y1272619D01*
X3884819Y1272619D02*
X3884819Y1367857D01*
X3884819Y1367857D02*
X3932438Y1510714D01*
X3932438Y1510714D02*
X3980057Y1558333D01*
X4884819Y2510714D02*
X4884819Y1939286D01*
X4884819Y2225000D02*
X3884819Y2225000D01*
X3884819Y2225000D02*
X4027676Y2129762D01*
X4027676Y2129762D02*
X4122914Y2034524D01*
X4122914Y2034524D02*
X4170533Y1939286D01*
X3054819Y-1976189D02*
X2054819Y-1976189D01*
X2959580Y-928571D02*
X3007200Y-976190D01*
X3007200Y-976190D02*
X3054819Y-1119047D01*
X3054819Y-1119047D02*
X3054819Y-1214285D01*
X3054819Y-1214285D02*
X3007200Y-1357142D01*
X3007200Y-1357142D02*
X2911961Y-1452380D01*
X2911961Y-1452380D02*
X2816723Y-1499999D01*
X2816723Y-1499999D02*
X2626247Y-1547618D01*
X2626247Y-1547618D02*
X2483390Y-1547618D01*
X2483390Y-1547618D02*
X2292914Y-1499999D01*
X2292914Y-1499999D02*
X2197676Y-1452380D01*
X2197676Y-1452380D02*
X2102438Y-1357142D01*
X2102438Y-1357142D02*
X2054819Y-1214285D01*
X2054819Y-1214285D02*
X2054819Y-1119047D01*
X2054819Y-1119047D02*
X2102438Y-976190D01*
X2102438Y-976190D02*
X2150057Y-928571D01*
X3054819Y23809D02*
X3054819Y-547618D01*
X3054819Y-261904D02*
X2054819Y-261904D01*
X2054819Y-261904D02*
X2197676Y-357142D01*
X2197676Y-357142D02*
X2292914Y-452380D01*
X2292914Y-452380D02*
X2340533Y-547618D01*
X-666666Y-4454819D02*
X-999999Y-3978628D01*
X-1238094Y-4454819D02*
X-1238094Y-3454819D01*
X-1238094Y-3454819D02*
X-857142Y-3454819D01*
X-857142Y-3454819D02*
X-761904Y-3502438D01*
X-761904Y-3502438D02*
X-714285Y-3550057D01*
X-714285Y-3550057D02*
X-666666Y-3645295D01*
X-666666Y-3645295D02*
X-666666Y-3788152D01*
X-666666Y-3788152D02*
X-714285Y-3883390D01*
X-714285Y-3883390D02*
X-761904Y-3931009D01*
X-761904Y-3931009D02*
X-857142Y-3978628D01*
X-857142Y-3978628D02*
X-1238094Y-3978628D01*
X285714Y-4454819D02*
X-285713Y-4454819D01*
X0Y-4454819D02*
X0Y-3454819D01*
X0Y-3454819D02*
X-95237Y-3597676D01*
X-95237Y-3597676D02*
X-190475Y-3692914D01*
X-190475Y-3692914D02*
X-285713Y-3740533D01*
X2008333Y5475180D02*
X1675000Y5951371D01*
X1436905Y5475180D02*
X1436905Y6475180D01*
X1436905Y6475180D02*
X1817857Y6475180D01*
X1817857Y6475180D02*
X1913095Y6427561D01*
X1913095Y6427561D02*
X1960714Y6379942D01*
X1960714Y6379942D02*
X2008333Y6284704D01*
X2008333Y6284704D02*
X2008333Y6141847D01*
X2008333Y6141847D02*
X1960714Y6046609D01*
X1960714Y6046609D02*
X1913095Y5998990D01*
X1913095Y5998990D02*
X1817857Y5951371D01*
X1817857Y5951371D02*
X1436905Y5951371D01*
X2389286Y6379942D02*
X2436905Y6427561D01*
X2436905Y6427561D02*
X2532143Y6475180D01*
X2532143Y6475180D02*
X2770238Y6475180D01*
X2770238Y6475180D02*
X2865476Y6427561D01*
X2865476Y6427561D02*
X2913095Y6379942D01*
X2913095Y6379942D02*
X2960714Y6284704D01*
X2960714Y6284704D02*
X2960714Y6189466D01*
X2960714Y6189466D02*
X2913095Y6046609D01*
X2913095Y6046609D02*
X2341667Y5475180D01*
X2341667Y5475180D02*
X2960714Y5475180D01*
X-20714285Y8140419D02*
X-20761904Y8092800D01*
X-20761904Y8092800D02*
X-20904761Y8045180D01*
X-20904761Y8045180D02*
X-20999999Y8045180D01*
X-20999999Y8045180D02*
X-21142856Y8092800D01*
X-21142856Y8092800D02*
X-21238094Y8188038D01*
X-21238094Y8188038D02*
X-21285713Y8283276D01*
X-21285713Y8283276D02*
X-21333332Y8473752D01*
X-21333332Y8473752D02*
X-21333332Y8616609D01*
X-21333332Y8616609D02*
X-21285713Y8807085D01*
X-21285713Y8807085D02*
X-21238094Y8902323D01*
X-21238094Y8902323D02*
X-21142856Y8997561D01*
X-21142856Y8997561D02*
X-20999999Y9045180D01*
X-20999999Y9045180D02*
X-20904761Y9045180D01*
X-20904761Y9045180D02*
X-20761904Y8997561D01*
X-20761904Y8997561D02*
X-20714285Y8949942D01*
X-20095237Y9045180D02*
X-19904761Y9045180D01*
X-19904761Y9045180D02*
X-19809523Y8997561D01*
X-19809523Y8997561D02*
X-19714285Y8902323D01*
X-19714285Y8902323D02*
X-19666666Y8711847D01*
X-19666666Y8711847D02*
X-19666666Y8378514D01*
X-19666666Y8378514D02*
X-19714285Y8188038D01*
X-19714285Y8188038D02*
X-19809523Y8092800D01*
X-19809523Y8092800D02*
X-19904761Y8045180D01*
X-19904761Y8045180D02*
X-20095237Y8045180D01*
X-20095237Y8045180D02*
X-20190475Y8092800D01*
X-20190475Y8092800D02*
X-20285713Y8188038D01*
X-20285713Y8188038D02*
X-20333332Y8378514D01*
X-20333332Y8378514D02*
X-20333332Y8711847D01*
X-20333332Y8711847D02*
X-20285713Y8902323D01*
X-20285713Y8902323D02*
X-20190475Y8997561D01*
X-20190475Y8997561D02*
X-20095237Y9045180D01*
X-19238094Y8045180D02*
X-19238094Y9045180D01*
X-19238094Y9045180D02*
X-18666666Y8045180D01*
X-18666666Y8045180D02*
X-18666666Y9045180D01*
X-17666666Y8045180D02*
X-18238094Y8045180D01*
X-17952380Y8045180D02*
X-17952380Y9045180D01*
X-17952380Y9045180D02*
X-18047618Y8902323D01*
X-18047618Y8902323D02*
X-18142856Y8807085D01*
X-18142856Y8807085D02*
X-18238094Y8759466D01*
X-16250419Y-13039285D02*
X-16202800Y-13086904D01*
X-16202800Y-13086904D02*
X-16155180Y-13229761D01*
X-16155180Y-13229761D02*
X-16155180Y-13324999D01*
X-16155180Y-13324999D02*
X-16202800Y-13467856D01*
X-16202800Y-13467856D02*
X-16298038Y-13563094D01*
X-16298038Y-13563094D02*
X-16393276Y-13610713D01*
X-16393276Y-13610713D02*
X-16583752Y-13658332D01*
X-16583752Y-13658332D02*
X-16726609Y-13658332D01*
X-16726609Y-13658332D02*
X-16917085Y-13610713D01*
X-16917085Y-13610713D02*
X-17012323Y-13563094D01*
X-17012323Y-13563094D02*
X-17107561Y-13467856D01*
X-17107561Y-13467856D02*
X-17155180Y-13324999D01*
X-17155180Y-13324999D02*
X-17155180Y-13229761D01*
X-17155180Y-13229761D02*
X-17107561Y-13086904D01*
X-17107561Y-13086904D02*
X-17059942Y-13039285D01*
X-17155180Y-12420237D02*
X-17155180Y-12229761D01*
X-17155180Y-12229761D02*
X-17107561Y-12134523D01*
X-17107561Y-12134523D02*
X-17012323Y-12039285D01*
X-17012323Y-12039285D02*
X-16821847Y-11991666D01*
X-16821847Y-11991666D02*
X-16488514Y-11991666D01*
X-16488514Y-11991666D02*
X-16298038Y-12039285D01*
X-16298038Y-12039285D02*
X-16202800Y-12134523D01*
X-16202800Y-12134523D02*
X-16155180Y-12229761D01*
X-16155180Y-12229761D02*
X-16155180Y-12420237D01*
X-16155180Y-12420237D02*
X-16202800Y-12515475D01*
X-16202800Y-12515475D02*
X-16298038Y-12610713D01*
X-16298038Y-12610713D02*
X-16488514Y-12658332D01*
X-16488514Y-12658332D02*
X-16821847Y-12658332D01*
X-16821847Y-12658332D02*
X-17012323Y-12610713D01*
X-17012323Y-12610713D02*
X-17107561Y-12515475D01*
X-17107561Y-12515475D02*
X-17155180Y-12420237D01*
X-16155180Y-11563094D02*
X-17155180Y-11563094D01*
X-17155180Y-11563094D02*
X-16155180Y-10991666D01*
X-16155180Y-10991666D02*
X-17155180Y-10991666D01*
X-17059942Y-10563094D02*
X-17107561Y-10515475D01*
X-17107561Y-10515475D02*
X-17155180Y-10420237D01*
X-17155180Y-10420237D02*
X-17155180Y-10182142D01*
X-17155180Y-10182142D02*
X-17107561Y-10086904D01*
X-17107561Y-10086904D02*
X-17059942Y-10039285D01*
X-17059942Y-10039285D02*
X-16964704Y-9991666D01*
X-16964704Y-9991666D02*
X-16869466Y-9991666D01*
X-16869466Y-9991666D02*
X-16726609Y-10039285D01*
X-16726609Y-10039285D02*
X-16155180Y-10610713D01*
X-16155180Y-10610713D02*
X-16155180Y-9991666D01*
X-9166666Y-11359580D02*
X-9214285Y-11407200D01*
X-9214285Y-11407200D02*
X-9357142Y-11454819D01*
X-9357142Y-11454819D02*
X-9452380Y-11454819D01*
X-9452380Y-11454819D02*
X-9595237Y-11407200D01*
X-9595237Y-11407200D02*
X-9690475Y-11311961D01*
X-9690475Y-11311961D02*
X-9738094Y-11216723D01*
X-9738094Y-11216723D02*
X-9785713Y-11026247D01*
X-9785713Y-11026247D02*
X-9785713Y-10883390D01*
X-9785713Y-10883390D02*
X-9738094Y-10692914D01*
X-9738094Y-10692914D02*
X-9690475Y-10597676D01*
X-9690475Y-10597676D02*
X-9595237Y-10502438D01*
X-9595237Y-10502438D02*
X-9452380Y-10454819D01*
X-9452380Y-10454819D02*
X-9357142Y-10454819D01*
X-9357142Y-10454819D02*
X-9214285Y-10502438D01*
X-9214285Y-10502438D02*
X-9166666Y-10550057D01*
X-8785713Y-10550057D02*
X-8738094Y-10502438D01*
X-8738094Y-10502438D02*
X-8642856Y-10454819D01*
X-8642856Y-10454819D02*
X-8404761Y-10454819D01*
X-8404761Y-10454819D02*
X-8309523Y-10502438D01*
X-8309523Y-10502438D02*
X-8261904Y-10550057D01*
X-8261904Y-10550057D02*
X-8214285Y-10645295D01*
X-8214285Y-10645295D02*
X-8214285Y-10740533D01*
X-8214285Y-10740533D02*
X-8261904Y-10883390D01*
X-8261904Y-10883390D02*
X-8833332Y-11454819D01*
X-8833332Y-11454819D02*
X-8214285Y-11454819D01*
X-7716666Y840419D02*
X-7764285Y792800D01*
X-7764285Y792800D02*
X-7907142Y745180D01*
X-7907142Y745180D02*
X-8002380Y745180D01*
X-8002380Y745180D02*
X-8145237Y792800D01*
X-8145237Y792800D02*
X-8240475Y888038D01*
X-8240475Y888038D02*
X-8288094Y983276D01*
X-8288094Y983276D02*
X-8335713Y1173752D01*
X-8335713Y1173752D02*
X-8335713Y1316609D01*
X-8335713Y1316609D02*
X-8288094Y1507085D01*
X-8288094Y1507085D02*
X-8240475Y1602323D01*
X-8240475Y1602323D02*
X-8145237Y1697561D01*
X-8145237Y1697561D02*
X-8002380Y1745180D01*
X-8002380Y1745180D02*
X-7907142Y1745180D01*
X-7907142Y1745180D02*
X-7764285Y1697561D01*
X-7764285Y1697561D02*
X-7716666Y1649942D01*
X-7383332Y1745180D02*
X-6764285Y1745180D01*
X-6764285Y1745180D02*
X-7097618Y1364228D01*
X-7097618Y1364228D02*
X-6954761Y1364228D01*
X-6954761Y1364228D02*
X-6859523Y1316609D01*
X-6859523Y1316609D02*
X-6811904Y1268990D01*
X-6811904Y1268990D02*
X-6764285Y1173752D01*
X-6764285Y1173752D02*
X-6764285Y935657D01*
X-6764285Y935657D02*
X-6811904Y840419D01*
X-6811904Y840419D02*
X-6859523Y792800D01*
X-6859523Y792800D02*
X-6954761Y745180D01*
X-6954761Y745180D02*
X-7240475Y745180D01*
X-7240475Y745180D02*
X-7335713Y792800D01*
X-7335713Y792800D02*
X-7383332Y840419D01*
D11*
%TO.C,IC2*%
X-13390000Y-4500000D02*
X-13390000Y-900000D01*
X-13390000Y-4500000D02*
X-13390000Y-6700000D01*
X-16610000Y-4500000D02*
X-16610000Y-2300000D01*
X-16610000Y-4500000D02*
X-16610000Y-6700000D01*
%TO.C,SW2*%
X6370000Y-8830000D02*
X6370000Y-6170000D01*
X1230000Y-8830000D02*
X6370000Y-8830000D01*
X-40000Y-8830000D02*
X-1370000Y-8830000D01*
X1230000Y-6170000D02*
X6370000Y-6170000D01*
X-1370000Y-8830000D02*
X-1370000Y-7500000D01*
X1230000Y-8830000D02*
X1230000Y-6170000D01*
%TO.C,J4*%
X-13770000Y-19830000D02*
X-21450000Y-19830000D01*
X-12500000Y-17170000D02*
X-11170000Y-17170000D01*
X-21450000Y-17170000D02*
X-21450000Y-19830000D01*
X-13770000Y-17170000D02*
X-13770000Y-19830000D01*
X-11170000Y-17170000D02*
X-11170000Y-18500000D01*
X-13770000Y-17170000D02*
X-21450000Y-17170000D01*
%TO.C,J3*%
X-14230000Y7330000D02*
X-6550000Y7330000D01*
X-15500000Y4670000D02*
X-16830000Y4670000D01*
X-6550000Y4670000D02*
X-6550000Y7330000D01*
X-14230000Y4670000D02*
X-14230000Y7330000D01*
X-16830000Y4670000D02*
X-16830000Y6000000D01*
X-14230000Y4670000D02*
X-6550000Y4670000D01*
%TO.C,J1*%
X20330000Y-4730000D02*
X20330000Y2950000D01*
X20330000Y-7330000D02*
X19000000Y-7330000D01*
X20330000Y-4730000D02*
X17670000Y-4730000D01*
X20330000Y2950000D02*
X17670000Y2950000D01*
X20330000Y-6000000D02*
X20330000Y-7330000D01*
X17670000Y-4730000D02*
X17670000Y2950000D01*
%TO.C,SW1*%
X-1400000Y-21230000D02*
X-1400000Y-22520000D01*
X3450000Y-20220000D02*
X3450000Y-19430000D01*
X1400000Y-18380000D02*
X1600000Y-18380000D01*
X-2850000Y-21230000D02*
X2850000Y-21230000D01*
X-1200000Y-22730000D02*
X-300000Y-22730000D01*
X-3450000Y-19430000D02*
X-3450000Y-20220000D01*
X-100000Y-22520000D02*
X-300000Y-22730000D01*
X-100000Y-22520000D02*
X-100000Y-21230000D01*
X-1400000Y-22520000D02*
X-1200000Y-22730000D01*
X-1600000Y-18380000D02*
X100000Y-18380000D01*
%TO.C,CON3*%
X25280000Y-9540000D02*
X25800000Y-9540000D01*
X25800000Y-9540000D02*
X25800000Y5080000D01*
X10320000Y-8890000D02*
X13650000Y-8890000D01*
X10320000Y-8890000D02*
X10320000Y4430000D01*
X25280000Y-8890000D02*
X25280000Y-9540000D01*
X25280000Y-8890000D02*
X17170000Y-8890000D01*
X10100000Y-6630000D02*
X10100000Y-4830000D01*
X10320000Y4430000D02*
X13650000Y4430000D01*
X17170000Y4430000D02*
X25280000Y4430000D01*
X25280000Y5080000D02*
X25280000Y4430000D01*
X25800000Y5080000D02*
X25280000Y5080000D01*
%TO.C,R3*%
X-15737258Y1022500D02*
X-15262742Y1022500D01*
X-15737258Y-22500D02*
X-15262742Y-22500D01*
%TO.C,C1*%
X3510000Y1865580D02*
X3510000Y1584420D01*
X2490000Y1865580D02*
X2490000Y1584420D01*
D10*
%TO.C,IC1*%
X1675000Y1675000D02*
X1450000Y1675000D01*
X1675000Y1675000D02*
X1675000Y-1675000D01*
X1450000Y1675000D02*
X1450000Y2900000D01*
X-1675000Y1675000D02*
X-1375000Y1675000D01*
X-1675000Y1675000D02*
X-1675000Y-1675000D01*
X1675000Y-1675000D02*
X1375000Y-1675000D01*
X-1675000Y-1675000D02*
X-1375000Y-1675000D01*
D11*
%TO.C,R1*%
X1762742Y-3477500D02*
X2237258Y-3477500D01*
X1762742Y-4522500D02*
X2237258Y-4522500D01*
%TO.C,R2*%
X1937742Y5022500D02*
X2412258Y5022500D01*
X1937742Y3977500D02*
X2412258Y3977500D01*
%TO.C,CON1*%
X-19950000Y7020000D02*
X-22440000Y7020000D01*
X-17510000Y4875000D02*
X-17510000Y4075000D01*
X-17960000Y4475000D02*
X-17510000Y4875000D01*
X-17510000Y4075000D02*
X-17960000Y4475000D01*
X-19950000Y-670000D02*
X-22440000Y-670000D01*
%TO.C,CON2*%
X-19950000Y-7980000D02*
X-22440000Y-7980000D01*
X-17510000Y-10125000D02*
X-17510000Y-10925000D01*
X-17960000Y-10525000D02*
X-17510000Y-10125000D01*
X-17510000Y-10925000D02*
X-17960000Y-10525000D01*
X-19950000Y-15670000D02*
X-22440000Y-15670000D01*
%TO.C,C2*%
X-9140580Y-8990000D02*
X-8859420Y-8990000D01*
X-9140580Y-10010000D02*
X-8859420Y-10010000D01*
%TO.C,C3*%
X-13050000Y-1490000D02*
X-12050000Y-1490000D01*
X-12550000Y-990000D02*
X-12550000Y-1990000D01*
X-11810000Y-804437D02*
X-11810000Y-2490000D01*
X-11810000Y-804437D02*
X-10745563Y260000D01*
X-11810000Y-7195563D02*
X-11810000Y-5510000D01*
X-11810000Y-7195563D02*
X-10745563Y-8260000D01*
X-10745563Y260000D02*
X-3290000Y260000D01*
X-10745563Y-8260000D02*
X-3290000Y-8260000D01*
X-3290000Y260000D02*
X-3290000Y-2490000D01*
X-3290000Y-8260000D02*
X-3290000Y-5510000D01*
%TD*%
M02*
