M48
; DRILL file {KiCad 7.0.6} date Sun Sep 17 17:39:27 2023
; FORMAT={-:-/ absolute / inch / decimal}
; #@! TF.CreationDate,2023-09-17T17:39:27+01:00
; #@! TF.GenerationSoftware,Kicad,Pcbnew,7.0.6
; #@! TF.FileFunction,Plated,1,2,PTH
FMAT,2
INCH
; #@! TA.AperFunction,Plated,PTH,ViaDrill
T1C0.0118
; #@! TA.AperFunction,Plated,PTH,ViaDrill
T2C0.0157
; #@! TA.AperFunction,Plated,PTH,ComponentDrill
T3C0.0197
; #@! TA.AperFunction,Plated,PTH,ComponentDrill
T4C0.0374
; #@! TA.AperFunction,Plated,PTH,ComponentDrill
T5C0.0394
; #@! TA.AperFunction,Plated,PTH,ComponentDrill
T6C0.0906
%
G90
G05
T1
X-0.7874Y0.1575
X-0.6693Y0.1506
X-0.6693Y0.0787
X-0.6654Y-0.4094
X-0.6157Y-0.4651
X-0.5709Y-0.4331
X-0.4528Y-0.374
T2
X-0.5906Y0.0984
X-0.5709Y0.1378
X-0.1181Y0.0591
X-0.0787Y0.0197
X-0.0197Y0.1575
X0.1575Y0.0088
T4
X0.5Y0.05
X0.5Y-0.0484
X0.5Y-0.1272
X0.5Y-0.2256
T5
X-0.7921Y-0.7283
X-0.6921Y-0.7283
X-0.6102Y0.2362
X-0.5921Y-0.7283
X-0.5102Y0.2362
X-0.4921Y-0.7283
X-0.4102Y0.2362
X-0.3102Y0.2362
X-0.0016Y-0.2953
X0.0984Y-0.2953
X0.1984Y-0.2953
X0.748Y0.0638
X0.748Y-0.0362
X0.748Y-0.1362
X0.748Y-0.2362
T6
X0.6067Y0.1709
X0.6067Y-0.3465
T3
G00X-0.8327Y0.2362
M15
G01X-0.8602Y0.2362
M16
G05
G00X-0.8327Y0.0138
M15
G01X-0.8602Y0.0138
M16
G05
G00X-0.8327Y-0.3543
M15
G01X-0.8602Y-0.3543
M16
G05
G00X-0.8327Y-0.5768
M15
G01X-0.8602Y-0.5768
M16
G05
T0
M30
