%TF.GenerationSoftware,KiCad,Pcbnew,7.0.6*%
%TF.CreationDate,2023-09-17T17:39:24+01:00*%
%TF.ProjectId,working,776f726b-696e-4672-9e6b-696361645f70,rev?*%
%TF.SameCoordinates,Original*%
%TF.FileFunction,Copper,L2,Bot*%
%TF.FilePolarity,Positive*%
%FSLAX46Y46*%
G04 Gerber Fmt 4.6, Leading zero omitted, Abs format (unit mm)*
G04 Created by KiCad (PCBNEW 7.0.6) date 2023-09-17 17:39:24*
%MOMM*%
%LPD*%
G01*
G04 APERTURE LIST*
%TA.AperFunction,ComponentPad*%
%ADD10R,1.700000X1.700000*%
%TD*%
%TA.AperFunction,ComponentPad*%
%ADD11O,1.700000X1.700000*%
%TD*%
%TA.AperFunction,ComponentPad*%
%ADD12R,1.500000X1.600000*%
%TD*%
%TA.AperFunction,ComponentPad*%
%ADD13C,1.600000*%
%TD*%
%TA.AperFunction,ComponentPad*%
%ADD14C,3.000000*%
%TD*%
%TA.AperFunction,ComponentPad*%
%ADD15O,1.700000X1.000000*%
%TD*%
%TA.AperFunction,ComponentPad*%
%ADD16O,1.700000X0.850000*%
%TD*%
%TA.AperFunction,ViaPad*%
%ADD17C,0.600000*%
%TD*%
%TA.AperFunction,ViaPad*%
%ADD18C,0.800000*%
%TD*%
%TA.AperFunction,Conductor*%
%ADD19C,0.200000*%
%TD*%
%TA.AperFunction,Conductor*%
%ADD20C,0.250000*%
%TD*%
G04 APERTURE END LIST*
D10*
%TO.P,SW2,1,A*%
%TO.N,/select*%
X-40000Y-7500000D03*
D11*
%TO.P,SW2,2,B*%
%TO.N,+5V*%
X2500000Y-7500000D03*
%TO.P,SW2,3,C*%
%TO.N,/slide_switch_out_2*%
X5040000Y-7500000D03*
%TD*%
D10*
%TO.P,J4,1,Pin_1*%
%TO.N,/5v_in_2_zz*%
X-12500000Y-18500000D03*
D11*
%TO.P,J4,2,Pin_2*%
%TO.N,/usb_negative_secondary_1*%
X-15040000Y-18500000D03*
%TO.P,J4,3,Pin_3*%
%TO.N,/usb_positive_secondary_1*%
X-17580000Y-18500000D03*
%TO.P,J4,4,Pin_4*%
%TO.N,GND*%
X-20120000Y-18500000D03*
%TD*%
D10*
%TO.P,J3,1,Pin_1*%
%TO.N,/5v_in_1_zz*%
X-15500000Y6000000D03*
D11*
%TO.P,J3,2,Pin_2*%
%TO.N,/usb_negative_secondary_2*%
X-12960000Y6000000D03*
%TO.P,J3,3,Pin_3*%
%TO.N,/usb_positive_secondary_2*%
X-10420000Y6000000D03*
%TO.P,J3,4,Pin_4*%
%TO.N,GND*%
X-7880000Y6000000D03*
%TD*%
%TO.P,J1,4,Pin_4*%
%TO.N,GND*%
X19000000Y1620000D03*
%TO.P,J1,3,Pin_3*%
%TO.N,/usb_positive_main*%
X19000000Y-920000D03*
%TO.P,J1,2,Pin_2*%
%TO.N,/usb_negative_main*%
X19000000Y-3460000D03*
D10*
%TO.P,J1,1,Pin_1*%
%TO.N,+5V*%
X19000000Y-6000000D03*
%TD*%
D12*
%TO.P,CON3,1,VBUS*%
%TO.N,+5V*%
X12700000Y-5730000D03*
D13*
%TO.P,CON3,2,D-*%
%TO.N,/usb_negative_main*%
X12700000Y-3230000D03*
%TO.P,CON3,3,D+*%
%TO.N,/usb_positive_main*%
X12700000Y-1230000D03*
%TO.P,CON3,4,GND*%
%TO.N,GND*%
X12700000Y1270000D03*
D14*
%TO.P,CON3,5,Shield*%
X15410000Y-8800000D03*
X15410000Y4340000D03*
%TD*%
D15*
%TO.P,CON1,6,Shield*%
%TO.N,GND*%
X-21500000Y6000000D03*
D16*
X-21500000Y350000D03*
%TD*%
D15*
%TO.P,CON2,6,Shield*%
%TO.N,GND*%
X-21500000Y-9000000D03*
D16*
X-21500000Y-14650000D03*
%TD*%
D17*
%TO.N,/5v_in_2_zz*%
X-16900000Y-10400000D03*
%TO.N,/usb_positive_secondary_1*%
X-15639500Y-11812277D03*
%TO.N,/usb_negative_secondary_1*%
X-14500000Y-11000000D03*
%TO.N,/usb_negative_secondary_2*%
X-17000000Y3825000D03*
%TO.N,/5v_in_1_zz*%
X-20000000Y4000000D03*
%TO.N,+5V*%
X-11500000Y-9500000D03*
D18*
%TO.N,GND*%
X4000000Y224500D03*
D17*
X-17000000Y2000000D03*
D18*
%TO.N,/usb_negative_secondary_2*%
X-14500000Y3500000D03*
X-3000000Y1500000D03*
%TO.N,/usb_positive_secondary_2*%
X-2000000Y500000D03*
X-15000000Y2500000D03*
%TO.N,/select*%
X-500000Y4000000D03*
%TD*%
D19*
%TO.N,/5v_in_2_zz*%
X-17000000Y-10500000D02*
X-16900000Y-10400000D01*
X-14251471Y-10400000D02*
X-16900000Y-10400000D01*
X-12500000Y-12151471D02*
X-14251471Y-10400000D01*
X-12500000Y-18500000D02*
X-12500000Y-12151471D01*
%TO.N,/usb_positive_secondary_1*%
X-17580000Y-13580000D02*
X-15639500Y-11639500D01*
X-17580000Y-18500000D02*
X-17580000Y-13580000D01*
X-15639500Y-11639500D02*
X-15639500Y-11812277D01*
%TO.N,/usb_negative_secondary_1*%
X-15040000Y-11540000D02*
X-14500000Y-11000000D01*
X-15040000Y-18500000D02*
X-15040000Y-11540000D01*
%TO.N,/usb_positive_secondary_2*%
X-15500000Y3489950D02*
X-15500000Y3000000D01*
X-14789950Y4200000D02*
X-15500000Y3489950D01*
X-12220000Y4200000D02*
X-14789950Y4200000D01*
X-10420000Y6000000D02*
X-12220000Y4200000D01*
X-15500000Y3000000D02*
X-15000000Y2500000D01*
%TO.N,/usb_negative_secondary_2*%
X-17000000Y4000000D02*
X-17000000Y3825000D01*
X-16000000Y4850000D02*
X-16850000Y4000000D01*
X-14110000Y4850000D02*
X-16000000Y4850000D01*
X-16850000Y4000000D02*
X-17000000Y4000000D01*
X-12960000Y6000000D02*
X-14110000Y4850000D01*
%TO.N,/5v_in_1_zz*%
X-17000000Y4500000D02*
X-19500000Y4500000D01*
X-19500000Y4500000D02*
X-20000000Y4000000D01*
X-15500000Y6000000D02*
X-17000000Y4500000D01*
D20*
%TO.N,/usb_negative_main*%
X18770000Y-3230000D02*
X19000000Y-3460000D01*
X12700000Y-3230000D02*
X18770000Y-3230000D01*
%TO.N,/usb_positive_main*%
X18690000Y-1230000D02*
X19000000Y-920000D01*
X12700000Y-1230000D02*
X18690000Y-1230000D01*
D19*
%TO.N,+5V*%
X3000000Y-7500000D02*
X1000000Y-9500000D01*
X1000000Y-9500000D02*
X-11500000Y-9500000D01*
D20*
X4810000Y-5730000D02*
X12700000Y-5730000D01*
X3040000Y-7500000D02*
X4810000Y-5730000D01*
%TO.N,/usb_negative_secondary_2*%
X-14500000Y3500000D02*
X-12500000Y1500000D01*
X-12500000Y1500000D02*
X-3000000Y1500000D01*
%TO.N,/usb_positive_secondary_2*%
X-15000000Y2500000D02*
X-13000000Y500000D01*
X-13000000Y500000D02*
X-2000000Y500000D01*
%TO.N,/select*%
X500000Y3000000D02*
X500000Y-7500000D01*
X-500000Y4000000D02*
X500000Y3000000D01*
%TD*%
%TA.AperFunction,Conductor*%
%TO.N,GND*%
G36*
X17354467Y22482472D02*
G01*
X17358770Y22482095D01*
X17743657Y22431424D01*
X17747912Y22430674D01*
X18126906Y22346653D01*
X18131080Y22345535D01*
X18501324Y22228797D01*
X18505384Y22227320D01*
X18864042Y22078759D01*
X18867958Y22076934D01*
X19212294Y21897684D01*
X19216036Y21895523D01*
X19543457Y21686933D01*
X19546996Y21684455D01*
X19854972Y21448136D01*
X19858282Y21445359D01*
X20144507Y21183082D01*
X20147562Y21180027D01*
X20409822Y20893822D01*
X20412599Y20890512D01*
X20648923Y20582529D01*
X20651401Y20578990D01*
X20859991Y20251569D01*
X20862152Y20247827D01*
X21041402Y19903491D01*
X21043227Y19899575D01*
X21191789Y19540917D01*
X21193266Y19536857D01*
X21310004Y19166614D01*
X21311122Y19162440D01*
X21395143Y18783445D01*
X21395893Y18779190D01*
X21446565Y18394304D01*
X21446942Y18390000D01*
X21463966Y18000091D01*
X21463966Y-17000000D01*
X21446938Y-17390000D01*
X21446561Y-17394304D01*
X21395889Y-17779190D01*
X21395139Y-17783445D01*
X21311118Y-18162439D01*
X21310000Y-18166613D01*
X21193262Y-18536856D01*
X21191785Y-18540916D01*
X21043224Y-18899573D01*
X21041398Y-18903489D01*
X20862148Y-19247825D01*
X20859987Y-19251567D01*
X20651398Y-19578987D01*
X20648920Y-19582527D01*
X20412601Y-19890504D01*
X20409824Y-19893814D01*
X20147548Y-20180036D01*
X20144493Y-20183091D01*
X20127190Y-20198946D01*
X19858283Y-20445354D01*
X19854977Y-20448128D01*
X19546994Y-20684452D01*
X19543454Y-20686930D01*
X19216034Y-20895519D01*
X19212292Y-20897680D01*
X18867956Y-21076930D01*
X18864040Y-21078755D01*
X18505383Y-21227316D01*
X18501323Y-21228793D01*
X18131079Y-21345531D01*
X18126905Y-21346649D01*
X17747911Y-21430670D01*
X17743656Y-21431420D01*
X17358770Y-21482091D01*
X17354467Y-21482468D01*
X16964374Y-21499500D01*
X-18035534Y-21499500D01*
X-18425534Y-21482472D01*
X-18429838Y-21482095D01*
X-18814724Y-21431423D01*
X-18818979Y-21430673D01*
X-19197973Y-21346652D01*
X-19202147Y-21345534D01*
X-19572391Y-21228796D01*
X-19576451Y-21227319D01*
X-19935108Y-21078758D01*
X-19939024Y-21076932D01*
X-20283360Y-20897682D01*
X-20287102Y-20895521D01*
X-20614522Y-20686932D01*
X-20618062Y-20684454D01*
X-20926045Y-20448130D01*
X-20929355Y-20445353D01*
X-21198262Y-20198945D01*
X-21215571Y-20183083D01*
X-21218622Y-20180033D01*
X-21431115Y-19948138D01*
X-21480893Y-19893814D01*
X-21483664Y-19890511D01*
X-21719988Y-19582528D01*
X-21722466Y-19578988D01*
X-21931055Y-19251568D01*
X-21933216Y-19247826D01*
X-22112466Y-18903490D01*
X-22114292Y-18899574D01*
X-22176248Y-18750000D01*
X-21450636Y-18750000D01*
X-21393430Y-18963489D01*
X-21293600Y-19177577D01*
X-21158113Y-19371073D01*
X-20991073Y-19538113D01*
X-20797577Y-19673600D01*
X-20583490Y-19773430D01*
X-20370000Y-19830633D01*
X-20370000Y-18935501D01*
X-20262315Y-18984680D01*
X-20155763Y-19000000D01*
X-20084237Y-19000000D01*
X-19977685Y-18984680D01*
X-19870000Y-18935501D01*
X-19870000Y-19830634D01*
X-19656509Y-19773430D01*
X-19442422Y-19673600D01*
X-19248926Y-19538113D01*
X-19081886Y-19371073D01*
X-18946399Y-19177577D01*
X-18940001Y-19163856D01*
X-18898273Y-19119108D01*
X-18838212Y-19107433D01*
X-18782759Y-19133291D01*
X-18760551Y-19163857D01*
X-18754035Y-19177830D01*
X-18618495Y-19371401D01*
X-18451401Y-19538495D01*
X-18257830Y-19674035D01*
X-18043663Y-19773903D01*
X-17815408Y-19835063D01*
X-17815401Y-19835063D01*
X-17815400Y-19835064D01*
X-17580004Y-19855659D01*
X-17580000Y-19855659D01*
X-17579996Y-19855659D01*
X-17344599Y-19835064D01*
X-17344596Y-19835063D01*
X-17344592Y-19835063D01*
X-17116337Y-19773903D01*
X-16902170Y-19674035D01*
X-16708599Y-19538495D01*
X-16541505Y-19371401D01*
X-16540807Y-19370405D01*
X-16435028Y-19219336D01*
X-16405965Y-19177830D01*
X-16399724Y-19164447D01*
X-16357997Y-19119700D01*
X-16297936Y-19108025D01*
X-16242483Y-19133883D01*
X-16220275Y-19164447D01*
X-16214035Y-19177830D01*
X-16078495Y-19371401D01*
X-15911401Y-19538495D01*
X-15717830Y-19674035D01*
X-15503663Y-19773903D01*
X-15275408Y-19835063D01*
X-15275401Y-19835063D01*
X-15275400Y-19835064D01*
X-15040004Y-19855659D01*
X-15040000Y-19855659D01*
X-15039996Y-19855659D01*
X-14804599Y-19835064D01*
X-14804596Y-19835063D01*
X-14804592Y-19835063D01*
X-14576337Y-19773903D01*
X-14362170Y-19674035D01*
X-14168599Y-19538495D01*
X-14014042Y-19383938D01*
X-13959528Y-19356163D01*
X-13899096Y-19365734D01*
X-13855831Y-19408999D01*
X-13845608Y-19443364D01*
X-13844091Y-19457483D01*
X-13793796Y-19592331D01*
X-13707546Y-19707546D01*
X-13592331Y-19793796D01*
X-13592329Y-19793796D01*
X-13592329Y-19793797D01*
X-13527356Y-19818030D01*
X-13457483Y-19844091D01*
X-13397873Y-19850500D01*
X-11602128Y-19850499D01*
X-11542517Y-19844091D01*
X-11542514Y-19844090D01*
X-11407670Y-19793797D01*
X-11403148Y-19790412D01*
X-2129227Y-19790412D01*
X-2119304Y-19948138D01*
X-2070467Y-20098441D01*
X-1985786Y-20231877D01*
X-1870582Y-20340062D01*
X-1732092Y-20416197D01*
X-1579019Y-20455500D01*
X-1579018Y-20455500D01*
X-1460649Y-20455500D01*
X-1343213Y-20440665D01*
X-1343210Y-20440664D01*
X-1343208Y-20440664D01*
X-1196268Y-20382486D01*
X-1068412Y-20289594D01*
X-967676Y-20167823D01*
X-900385Y-20024825D01*
X-870773Y-19869593D01*
X-870772Y-19869588D01*
X-875754Y-19790408D01*
X870772Y-19790408D01*
X880695Y-19948134D01*
X929533Y-20098443D01*
X993315Y-20198946D01*
X1014214Y-20231877D01*
X1129418Y-20340062D01*
X1267908Y-20416197D01*
X1420981Y-20455500D01*
X1420982Y-20455500D01*
X1539351Y-20455500D01*
X1656786Y-20440665D01*
X1656787Y-20440664D01*
X1656792Y-20440664D01*
X1803732Y-20382486D01*
X1931587Y-20289594D01*
X2032324Y-20167823D01*
X2099614Y-20024826D01*
X2129227Y-19869588D01*
X2119304Y-19711862D01*
X2070467Y-19561559D01*
X2070466Y-19561558D01*
X2070466Y-19561556D01*
X1985786Y-19428123D01*
X1985786Y-19428122D01*
X1870582Y-19319938D01*
X1732092Y-19243803D01*
X1732091Y-19243802D01*
X1732090Y-19243802D01*
X1579020Y-19204500D01*
X1579019Y-19204500D01*
X1460650Y-19204500D01*
X1460649Y-19204500D01*
X1343213Y-19219334D01*
X1343206Y-19219336D01*
X1196269Y-19277513D01*
X1196268Y-19277513D01*
X1068412Y-19370405D01*
X967676Y-19492176D01*
X900385Y-19635174D01*
X870772Y-19790408D01*
X-875754Y-19790408D01*
X-880695Y-19711865D01*
X-929533Y-19561556D01*
X-1014213Y-19428123D01*
X-1129419Y-19319937D01*
X-1267909Y-19243802D01*
X-1420979Y-19204500D01*
X-1420981Y-19204500D01*
X-1539350Y-19204500D01*
X-1539351Y-19204500D01*
X-1656786Y-19219334D01*
X-1656793Y-19219336D01*
X-1803730Y-19277513D01*
X-1803731Y-19277513D01*
X-1931587Y-19370405D01*
X-2003627Y-19457488D01*
X-2032324Y-19492177D01*
X-2074840Y-19582527D01*
X-2099614Y-19635174D01*
X-2129227Y-19790408D01*
X-2129226Y-19790411D01*
X-2129227Y-19790412D01*
X-11403148Y-19790412D01*
X-11292458Y-19707549D01*
X-11292457Y-19707548D01*
X-11292454Y-19707546D01*
X-11292450Y-19707541D01*
X-11206202Y-19592329D01*
X-11155910Y-19457488D01*
X-11155908Y-19457477D01*
X-11149500Y-19397870D01*
X-11149500Y-17602133D01*
X-11149501Y-17602129D01*
X-11155908Y-17542519D01*
X-11155909Y-17542514D01*
X-11206202Y-17407670D01*
X-11292450Y-17292458D01*
X-11292458Y-17292450D01*
X-11407670Y-17206202D01*
X-11542511Y-17155910D01*
X-11542522Y-17155908D01*
X-11577636Y-17152133D01*
X-11602127Y-17149500D01*
X-11602130Y-17149500D01*
X-11800500Y-17149500D01*
X-11858691Y-17130593D01*
X-11894655Y-17081093D01*
X-11899500Y-17050500D01*
X-11899500Y-15133055D01*
X-9311034Y-15133055D01*
X-9271373Y-15396194D01*
X-9192935Y-15650482D01*
X-9077474Y-15890239D01*
X-8927569Y-16110110D01*
X-8746567Y-16305183D01*
X-8538514Y-16471101D01*
X-8308055Y-16604156D01*
X-8060339Y-16701377D01*
X-7800901Y-16760593D01*
X-7710480Y-16767368D01*
X-7601982Y-16775500D01*
X-7601976Y-16775500D01*
X-7469086Y-16775500D01*
X-7349737Y-16766555D01*
X-7270167Y-16760593D01*
X-7010729Y-16701377D01*
X-7010728Y-16701376D01*
X-7010725Y-16701376D01*
X-6858066Y-16641461D01*
X-6763013Y-16604156D01*
X-6763004Y-16604151D01*
X-6763000Y-16604149D01*
X-6532552Y-16471100D01*
X-6324498Y-16305181D01*
X-6143504Y-16110116D01*
X-6143502Y-16110113D01*
X-6143499Y-16110110D01*
X-5993594Y-15890240D01*
X-5878133Y-15650482D01*
X-5854849Y-15574998D01*
X-5799696Y-15396198D01*
X-5799694Y-15396189D01*
X-5760034Y-15133058D01*
X5688966Y-15133058D01*
X5728626Y-15396189D01*
X5728628Y-15396198D01*
X5783781Y-15574998D01*
X5807065Y-15650482D01*
X5922526Y-15890239D01*
X6072431Y-16110110D01*
X6072434Y-16110113D01*
X6072436Y-16110116D01*
X6253430Y-16305181D01*
X6461484Y-16471100D01*
X6691932Y-16604149D01*
X6691936Y-16604151D01*
X6691945Y-16604156D01*
X6786998Y-16641461D01*
X6939657Y-16701376D01*
X6939660Y-16701376D01*
X6939661Y-16701377D01*
X7199099Y-16760593D01*
X7278669Y-16766555D01*
X7398018Y-16775500D01*
X7398024Y-16775500D01*
X7530914Y-16775500D01*
X7639412Y-16767368D01*
X7729833Y-16760593D01*
X7989271Y-16701377D01*
X8236987Y-16604156D01*
X8467446Y-16471101D01*
X8675499Y-16305183D01*
X8856501Y-16110110D01*
X9006406Y-15890240D01*
X9121867Y-15650482D01*
X9200305Y-15396194D01*
X9239966Y-15133055D01*
X9239966Y-14866945D01*
X9200305Y-14603806D01*
X9121867Y-14349518D01*
X9006406Y-14109761D01*
X8856501Y-13889890D01*
X8856495Y-13889883D01*
X8675501Y-13694818D01*
X8467447Y-13528899D01*
X8236999Y-13395850D01*
X8236990Y-13395845D01*
X8236987Y-13395844D01*
X8236983Y-13395842D01*
X8236980Y-13395841D01*
X7989274Y-13298623D01*
X7729834Y-13239407D01*
X7729828Y-13239406D01*
X7530914Y-13224500D01*
X7530908Y-13224500D01*
X7398024Y-13224500D01*
X7398018Y-13224500D01*
X7199103Y-13239406D01*
X7199097Y-13239407D01*
X6939657Y-13298623D01*
X6691951Y-13395841D01*
X6691932Y-13395850D01*
X6461484Y-13528899D01*
X6253430Y-13694818D01*
X6072436Y-13889883D01*
X6072431Y-13889889D01*
X6072431Y-13889890D01*
X5922526Y-14109760D01*
X5922526Y-14109761D01*
X5922522Y-14109767D01*
X5807065Y-14349517D01*
X5728628Y-14603801D01*
X5728626Y-14603810D01*
X5688966Y-14866941D01*
X5688966Y-15133058D01*
X-5760034Y-15133058D01*
X-5760034Y-14866941D01*
X-5799694Y-14603810D01*
X-5799696Y-14603801D01*
X-5878133Y-14349517D01*
X-5993590Y-14109768D01*
X-5993592Y-14109764D01*
X-5993594Y-14109761D01*
X-6143499Y-13889890D01*
X-6143499Y-13889889D01*
X-6143504Y-13889883D01*
X-6324498Y-13694818D01*
X-6532552Y-13528899D01*
X-6763000Y-13395850D01*
X-6763019Y-13395841D01*
X-7010725Y-13298623D01*
X-7270165Y-13239407D01*
X-7270171Y-13239406D01*
X-7469086Y-13224500D01*
X-7469092Y-13224500D01*
X-7601976Y-13224500D01*
X-7601982Y-13224500D01*
X-7800896Y-13239406D01*
X-7800902Y-13239407D01*
X-8060342Y-13298623D01*
X-8308048Y-13395841D01*
X-8308051Y-13395842D01*
X-8308055Y-13395844D01*
X-8308058Y-13395845D01*
X-8308067Y-13395850D01*
X-8538515Y-13528899D01*
X-8746569Y-13694818D01*
X-8927563Y-13889883D01*
X-8927569Y-13889890D01*
X-9077474Y-14109760D01*
X-9192935Y-14349518D01*
X-9271373Y-14603806D01*
X-9311034Y-14866945D01*
X-9311034Y-15133055D01*
X-11899500Y-15133055D01*
X-11899500Y-12194079D01*
X-11899076Y-12187611D01*
X-11894318Y-12151471D01*
X-11894318Y-12151470D01*
X-11914955Y-11994712D01*
X-11914957Y-11994704D01*
X-11975462Y-11848632D01*
X-11975465Y-11848627D01*
X-11996255Y-11821533D01*
X-12008509Y-11805565D01*
X-12037070Y-11768342D01*
X-12071714Y-11723193D01*
X-12071719Y-11723188D01*
X-12100638Y-11700996D01*
X-12105510Y-11696724D01*
X-13796724Y-10005510D01*
X-13800996Y-10000638D01*
X-13813319Y-9984580D01*
X-13823189Y-9971718D01*
X-13823191Y-9971716D01*
X-13823194Y-9971713D01*
X-13948632Y-9875462D01*
X-14094704Y-9814957D01*
X-14094712Y-9814955D01*
X-14212110Y-9799500D01*
X-14251471Y-9794318D01*
X-14251472Y-9794318D01*
X-14287612Y-9799076D01*
X-14294080Y-9799500D01*
X-16327415Y-9799500D01*
X-16385606Y-9780593D01*
X-16397412Y-9770509D01*
X-16397738Y-9770184D01*
X-16397738Y-9770183D01*
X-16397741Y-9770181D01*
X-16550476Y-9674211D01*
X-16720738Y-9614633D01*
X-16720742Y-9614632D01*
X-16900000Y-9594435D01*
X-17079257Y-9614632D01*
X-17079261Y-9614633D01*
X-17249522Y-9674211D01*
X-17249523Y-9674211D01*
X-17402258Y-9770181D01*
X-17402259Y-9770182D01*
X-17402262Y-9770184D01*
X-17529816Y-9897738D01*
X-17529817Y-9897740D01*
X-17529818Y-9897741D01*
X-17610760Y-10026560D01*
X-17625789Y-10050478D01*
X-17685368Y-10220745D01*
X-17705565Y-10400000D01*
X-17685368Y-10579255D01*
X-17625789Y-10749522D01*
X-17529816Y-10902262D01*
X-17402262Y-11029816D01*
X-17249522Y-11125789D01*
X-17101859Y-11177458D01*
X-17088815Y-11182023D01*
X-17079255Y-11185368D01*
X-16900000Y-11205565D01*
X-16720745Y-11185368D01*
X-16720742Y-11185367D01*
X-16720738Y-11185366D01*
X-16651145Y-11161014D01*
X-16550478Y-11125789D01*
X-16397738Y-11029816D01*
X-16397416Y-11029494D01*
X-16397192Y-11029380D01*
X-16393395Y-11026352D01*
X-16392774Y-11027129D01*
X-16342902Y-11001719D01*
X-16327415Y-11000500D01*
X-16195810Y-11000500D01*
X-16137619Y-11019407D01*
X-16101655Y-11068907D01*
X-16101655Y-11130093D01*
X-16137619Y-11179593D01*
X-16141213Y-11182023D01*
X-16141758Y-11182458D01*
X-16141759Y-11182459D01*
X-16141762Y-11182461D01*
X-16269316Y-11310015D01*
X-16269317Y-11310017D01*
X-16269318Y-11310018D01*
X-16365287Y-11462751D01*
X-16365287Y-11462752D01*
X-16365289Y-11462755D01*
X-16386513Y-11523412D01*
X-16409954Y-11560719D01*
X-17974491Y-13125255D01*
X-17979365Y-13129529D01*
X-18008276Y-13151713D01*
X-18008277Y-13151714D01*
X-18008282Y-13151718D01*
X-18032450Y-13183215D01*
X-18104536Y-13277159D01*
X-18165044Y-13423238D01*
X-18165044Y-13423241D01*
X-18185682Y-13579999D01*
X-18185682Y-13580000D01*
X-18180924Y-13616140D01*
X-18180500Y-13622608D01*
X-18180500Y-17226836D01*
X-18199407Y-17285027D01*
X-18237657Y-17316558D01*
X-18257829Y-17325965D01*
X-18258447Y-17326398D01*
X-18451396Y-17461501D01*
X-18451397Y-17461502D01*
X-18451401Y-17461505D01*
X-18618495Y-17628599D01*
X-18723939Y-17779190D01*
X-18754036Y-17822173D01*
X-18754038Y-17822177D01*
X-18760552Y-17836145D01*
X-18802281Y-17880893D01*
X-18862342Y-17892567D01*
X-18917795Y-17866708D01*
X-18940000Y-17836146D01*
X-18946398Y-17822424D01*
X-19081886Y-17628926D01*
X-19248926Y-17461886D01*
X-19442422Y-17326399D01*
X-19656510Y-17226569D01*
X-19870000Y-17169364D01*
X-19870000Y-18064498D01*
X-19977685Y-18015320D01*
X-20084237Y-18000000D01*
X-20155763Y-18000000D01*
X-20262315Y-18015320D01*
X-20370000Y-18064498D01*
X-20370000Y-17169364D01*
X-20583494Y-17226570D01*
X-20797567Y-17326394D01*
X-20797575Y-17326398D01*
X-20991073Y-17461886D01*
X-21158113Y-17628926D01*
X-21293601Y-17822424D01*
X-21293605Y-17822432D01*
X-21393429Y-18036505D01*
X-21450636Y-18250000D01*
X-20553686Y-18250000D01*
X-20579493Y-18290156D01*
X-20620000Y-18428111D01*
X-20620000Y-18571889D01*
X-20579493Y-18709844D01*
X-20553686Y-18750000D01*
X-21450636Y-18750000D01*
X-22176248Y-18750000D01*
X-22262853Y-18540917D01*
X-22264330Y-18536857D01*
X-22381068Y-18166613D01*
X-22382186Y-18162439D01*
X-22466207Y-17783445D01*
X-22466957Y-17779190D01*
X-22517629Y-17394304D01*
X-22518006Y-17390000D01*
X-22535034Y-17000000D01*
X-22535034Y-15537367D01*
X-22516127Y-15479176D01*
X-22466627Y-15443212D01*
X-22405441Y-15443212D01*
X-22386533Y-15451631D01*
X-22303308Y-15499681D01*
X-22118379Y-15559769D01*
X-21973476Y-15574999D01*
X-21973472Y-15575000D01*
X-21750001Y-15575000D01*
X-21750000Y-15574999D01*
X-21750000Y-14900000D01*
X-21249999Y-14900000D01*
X-21250000Y-14900001D01*
X-21250000Y-15574998D01*
X-21249999Y-15575000D01*
X-21026528Y-15575000D01*
X-21026523Y-15574999D01*
X-20881620Y-15559769D01*
X-20696691Y-15499681D01*
X-20696686Y-15499679D01*
X-20528307Y-15402464D01*
X-20528301Y-15402460D01*
X-20383809Y-15272359D01*
X-20383808Y-15272358D01*
X-20269512Y-15115044D01*
X-20269508Y-15115037D01*
X-20190428Y-14937419D01*
X-20190426Y-14937411D01*
X-20182474Y-14900000D01*
X-21125376Y-14900000D01*
X-21052455Y-14885495D01*
X-20969760Y-14830240D01*
X-20914505Y-14747545D01*
X-20895102Y-14650000D01*
X-20914505Y-14552455D01*
X-20969760Y-14469760D01*
X-21052455Y-14414505D01*
X-21125376Y-14400000D01*
X-20182474Y-14400000D01*
X-20190426Y-14362588D01*
X-20190427Y-14362584D01*
X-20269510Y-14184959D01*
X-20269512Y-14184956D01*
X-20383809Y-14027640D01*
X-20528301Y-13897539D01*
X-20528307Y-13897535D01*
X-20535526Y-13893367D01*
X-19625500Y-13893367D01*
X-19586978Y-14024561D01*
X-19513055Y-14139589D01*
X-19409718Y-14229130D01*
X-19347529Y-14257530D01*
X-19285345Y-14285930D01*
X-19285343Y-14285930D01*
X-19285342Y-14285931D01*
X-19285337Y-14285931D01*
X-19285336Y-14285932D01*
X-19184016Y-14300500D01*
X-19184011Y-14300500D01*
X-19115984Y-14300500D01*
X-19014663Y-14285932D01*
X-19014659Y-14285931D01*
X-19014658Y-14285931D01*
X-19014657Y-14285930D01*
X-19014654Y-14285930D01*
X-18890284Y-14229131D01*
X-18890283Y-14229130D01*
X-18890282Y-14229130D01*
X-18786945Y-14139589D01*
X-18713022Y-14024561D01*
X-18674500Y-13893367D01*
X-18674500Y-13756633D01*
X-18674500Y-13756632D01*
X-18674500Y-13756631D01*
X-18713021Y-13625441D01*
X-18713022Y-13625439D01*
X-18786945Y-13510411D01*
X-18786946Y-13510410D01*
X-18890284Y-13420868D01*
X-19014654Y-13364069D01*
X-19014663Y-13364067D01*
X-19115984Y-13349500D01*
X-19115989Y-13349500D01*
X-19184011Y-13349500D01*
X-19184016Y-13349500D01*
X-19285336Y-13364067D01*
X-19285345Y-13364069D01*
X-19409715Y-13420868D01*
X-19409716Y-13420869D01*
X-19409718Y-13420870D01*
X-19513055Y-13510411D01*
X-19586978Y-13625439D01*
X-19625500Y-13756633D01*
X-19625500Y-13893367D01*
X-20535526Y-13893367D01*
X-20696686Y-13800320D01*
X-20696691Y-13800318D01*
X-20881620Y-13740230D01*
X-21026523Y-13725000D01*
X-21249999Y-13725000D01*
X-21250000Y-13725001D01*
X-21250000Y-14399998D01*
X-21249999Y-14400000D01*
X-21750000Y-14400000D01*
X-21750000Y-13725001D01*
X-21750001Y-13725000D01*
X-21973476Y-13725000D01*
X-22118379Y-13740230D01*
X-22303308Y-13800318D01*
X-22303313Y-13800320D01*
X-22386534Y-13848368D01*
X-22446382Y-13861090D01*
X-22502278Y-13836203D01*
X-22532871Y-13783215D01*
X-22535034Y-13762632D01*
X-22535034Y-9931106D01*
X-22516127Y-9872915D01*
X-22466627Y-9836951D01*
X-22405441Y-9836951D01*
X-22379478Y-9849851D01*
X-22337812Y-9878851D01*
X-22337801Y-9878857D01*
X-22150905Y-9959060D01*
X-22150902Y-9959061D01*
X-21951696Y-9999999D01*
X-21951689Y-10000000D01*
X-21750001Y-10000000D01*
X-21750000Y-9999999D01*
X-21750000Y-9250000D01*
X-21249999Y-9250000D01*
X-21250000Y-9250001D01*
X-21250000Y-9999999D01*
X-21249999Y-10000000D01*
X-21099286Y-10000000D01*
X-20947664Y-9984581D01*
X-20947662Y-9984580D01*
X-20753608Y-9923696D01*
X-20753607Y-9923695D01*
X-20698966Y-9893367D01*
X-19625500Y-9893367D01*
X-19586978Y-10024561D01*
X-19513055Y-10139589D01*
X-19409718Y-10229130D01*
X-19347529Y-10257530D01*
X-19285345Y-10285930D01*
X-19285343Y-10285930D01*
X-19285342Y-10285931D01*
X-19285337Y-10285931D01*
X-19285336Y-10285932D01*
X-19184016Y-10300500D01*
X-19184011Y-10300500D01*
X-19115984Y-10300500D01*
X-19014663Y-10285932D01*
X-19014659Y-10285931D01*
X-19014658Y-10285931D01*
X-19014657Y-10285930D01*
X-19014654Y-10285930D01*
X-18890284Y-10229131D01*
X-18890283Y-10229130D01*
X-18890282Y-10229130D01*
X-18786945Y-10139589D01*
X-18713022Y-10024561D01*
X-18707428Y-10005510D01*
X-18674500Y-9893368D01*
X-18674500Y-9756631D01*
X-18713021Y-9625441D01*
X-18713022Y-9625439D01*
X-18786945Y-9510411D01*
X-18798960Y-9500000D01*
X-12305565Y-9500000D01*
X-12285368Y-9679255D01*
X-12225789Y-9849522D01*
X-12129816Y-10002262D01*
X-12002262Y-10129816D01*
X-11849522Y-10225789D01*
X-11679255Y-10285368D01*
X-11500000Y-10305565D01*
X-11320745Y-10285368D01*
X-11320742Y-10285367D01*
X-11320738Y-10285366D01*
X-11251145Y-10261014D01*
X-11150478Y-10225789D01*
X-11142450Y-10220745D01*
X-10997741Y-10129818D01*
X-10997740Y-10129817D01*
X-10997738Y-10129816D01*
X-10997416Y-10129494D01*
X-10997192Y-10129380D01*
X-10993395Y-10126352D01*
X-10992774Y-10127129D01*
X-10942902Y-10101719D01*
X-10927415Y-10100500D01*
X957391Y-10100500D01*
X963859Y-10100924D01*
X999999Y-10105682D01*
X1000000Y-10105682D01*
X1000001Y-10105682D01*
X1039361Y-10100500D01*
X1156762Y-10085044D01*
X1302841Y-10024536D01*
X1371675Y-9971718D01*
X1428282Y-9928282D01*
X1450475Y-9899357D01*
X1454744Y-9894490D01*
X1928366Y-9420868D01*
X2467482Y-8881751D01*
X2521997Y-8853976D01*
X2528845Y-8853135D01*
X2642859Y-8843160D01*
X2735400Y-8835064D01*
X2735401Y-8835063D01*
X2735408Y-8835063D01*
X2963663Y-8773903D01*
X3177830Y-8674035D01*
X3371401Y-8538495D01*
X3538495Y-8371401D01*
X3674035Y-8177830D01*
X3680275Y-8164447D01*
X3722003Y-8119700D01*
X3782064Y-8108025D01*
X3837517Y-8133883D01*
X3859724Y-8164447D01*
X3865965Y-8177830D01*
X4001505Y-8371401D01*
X4168599Y-8538495D01*
X4362170Y-8674035D01*
X4576337Y-8773903D01*
X4804592Y-8835063D01*
X4804596Y-8835063D01*
X4804599Y-8835064D01*
X5039996Y-8855659D01*
X5040000Y-8855659D01*
X5040004Y-8855659D01*
X5275400Y-8835064D01*
X5275401Y-8835063D01*
X5275408Y-8835063D01*
X5406270Y-8799999D01*
X13404891Y-8799999D01*
X13425299Y-9085351D01*
X13486113Y-9364908D01*
X13586089Y-9632953D01*
X13586093Y-9632961D01*
X13723188Y-9884033D01*
X13829883Y-10026560D01*
X14439437Y-9417005D01*
X14488348Y-9495999D01*
X14631931Y-9653501D01*
X14790389Y-9773163D01*
X14183437Y-10380116D01*
X14325960Y-10486807D01*
X14325963Y-10486809D01*
X14577038Y-10623906D01*
X14577046Y-10623910D01*
X14845091Y-10723886D01*
X15124648Y-10784700D01*
X15410000Y-10805108D01*
X15695351Y-10784700D01*
X15974908Y-10723886D01*
X16242953Y-10623910D01*
X16242961Y-10623906D01*
X16494036Y-10486809D01*
X16494039Y-10486807D01*
X16636561Y-10380116D01*
X16029609Y-9773164D01*
X16188069Y-9653501D01*
X16331652Y-9495999D01*
X16380561Y-9417006D01*
X16990116Y-10026561D01*
X17096807Y-9884039D01*
X17096809Y-9884036D01*
X17233906Y-9632961D01*
X17233910Y-9632953D01*
X17333886Y-9364908D01*
X17394700Y-9085351D01*
X17415108Y-8800000D01*
X17394700Y-8514648D01*
X17333886Y-8235091D01*
X17233910Y-7967046D01*
X17233906Y-7967038D01*
X17096809Y-7715963D01*
X17096807Y-7715960D01*
X16990116Y-7573437D01*
X16380560Y-8182992D01*
X16331652Y-8104001D01*
X16188069Y-7946499D01*
X16029608Y-7826834D01*
X16636560Y-7219883D01*
X16494033Y-7113188D01*
X16242961Y-6976093D01*
X16242953Y-6976089D01*
X15974908Y-6876113D01*
X15695351Y-6815299D01*
X15410000Y-6794891D01*
X15124648Y-6815299D01*
X14845091Y-6876113D01*
X14577046Y-6976089D01*
X14577038Y-6976093D01*
X14325960Y-7113191D01*
X14325953Y-7113196D01*
X14183437Y-7219882D01*
X14790390Y-7826835D01*
X14631931Y-7946499D01*
X14488348Y-8104001D01*
X14439438Y-8182993D01*
X13829882Y-7573437D01*
X13723196Y-7715953D01*
X13723191Y-7715960D01*
X13586093Y-7967038D01*
X13586089Y-7967046D01*
X13486113Y-8235091D01*
X13425299Y-8514648D01*
X13404891Y-8799999D01*
X5406270Y-8799999D01*
X5503663Y-8773903D01*
X5717830Y-8674035D01*
X5911401Y-8538495D01*
X6078495Y-8371401D01*
X6214035Y-8177830D01*
X6313903Y-7963663D01*
X6375063Y-7735408D01*
X6376143Y-7723063D01*
X6395659Y-7500004D01*
X6395659Y-7499995D01*
X6375064Y-7264599D01*
X6375063Y-7264596D01*
X6375063Y-7264592D01*
X6313903Y-7036337D01*
X6311181Y-7030499D01*
X6214040Y-6822181D01*
X6214036Y-6822173D01*
X6078498Y-6628603D01*
X6078497Y-6628602D01*
X6078495Y-6628599D01*
X5974397Y-6524501D01*
X5946622Y-6469987D01*
X5956193Y-6409555D01*
X5999458Y-6366290D01*
X6044403Y-6355500D01*
X11350501Y-6355500D01*
X11408692Y-6374407D01*
X11444656Y-6423907D01*
X11449501Y-6454500D01*
X11449501Y-6577870D01*
X11455908Y-6637480D01*
X11455909Y-6637485D01*
X11506202Y-6772329D01*
X11568342Y-6855337D01*
X11592454Y-6887546D01*
X11592457Y-6887548D01*
X11592458Y-6887549D01*
X11707670Y-6973797D01*
X11842511Y-7024089D01*
X11842512Y-7024089D01*
X11842517Y-7024091D01*
X11902127Y-7030500D01*
X13497872Y-7030499D01*
X13557483Y-7024091D01*
X13624906Y-6998943D01*
X13692329Y-6973797D01*
X13692329Y-6973796D01*
X13692331Y-6973796D01*
X13807546Y-6887546D01*
X13893796Y-6772331D01*
X13944091Y-6637483D01*
X13950500Y-6577873D01*
X13950499Y-4882128D01*
X13944091Y-4822517D01*
X13932877Y-4792450D01*
X13893797Y-4687670D01*
X13807549Y-4572458D01*
X13807548Y-4572457D01*
X13807546Y-4572454D01*
X13807541Y-4572450D01*
X13692329Y-4486202D01*
X13557488Y-4435910D01*
X13557478Y-4435908D01*
X13549029Y-4435000D01*
X13493193Y-4409979D01*
X13462727Y-4356918D01*
X13469269Y-4296083D01*
X13502828Y-4255471D01*
X13539139Y-4230047D01*
X13700047Y-4069139D01*
X13820077Y-3897715D01*
X13868941Y-3860894D01*
X13901173Y-3855500D01*
X17631967Y-3855500D01*
X17690158Y-3874407D01*
X17724995Y-3920637D01*
X17726092Y-3923652D01*
X17793930Y-4069132D01*
X17825965Y-4137830D01*
X17961505Y-4331401D01*
X18116060Y-4485956D01*
X18143836Y-4540471D01*
X18134265Y-4600903D01*
X18091000Y-4644168D01*
X18056637Y-4654391D01*
X18042517Y-4655909D01*
X18042514Y-4655909D01*
X17907670Y-4706202D01*
X17792458Y-4792450D01*
X17792450Y-4792458D01*
X17706202Y-4907670D01*
X17655910Y-5042511D01*
X17655908Y-5042522D01*
X17649501Y-5102116D01*
X17649500Y-5102128D01*
X17649500Y-6897866D01*
X17649501Y-6897870D01*
X17655908Y-6957480D01*
X17655909Y-6957485D01*
X17706202Y-7092329D01*
X17792450Y-7207541D01*
X17792454Y-7207546D01*
X17792457Y-7207548D01*
X17792458Y-7207549D01*
X17907670Y-7293797D01*
X18042511Y-7344089D01*
X18042512Y-7344089D01*
X18042517Y-7344091D01*
X18102127Y-7350500D01*
X19897872Y-7350499D01*
X19957483Y-7344091D01*
X20024906Y-7318943D01*
X20092329Y-7293797D01*
X20092329Y-7293796D01*
X20092331Y-7293796D01*
X20207546Y-7207546D01*
X20293796Y-7092331D01*
X20316858Y-7030500D01*
X20344089Y-6957488D01*
X20344090Y-6957485D01*
X20344091Y-6957483D01*
X20350500Y-6897873D01*
X20350499Y-5102128D01*
X20344091Y-5042517D01*
X20330285Y-5005500D01*
X20293797Y-4907670D01*
X20207549Y-4792458D01*
X20207548Y-4792457D01*
X20207546Y-4792454D01*
X20207541Y-4792450D01*
X20092329Y-4706202D01*
X19957488Y-4655910D01*
X19957471Y-4655906D01*
X19943358Y-4654389D01*
X19887523Y-4629368D01*
X19857059Y-4576306D01*
X19863602Y-4515471D01*
X19883939Y-4485956D01*
X20038495Y-4331401D01*
X20174035Y-4137830D01*
X20273903Y-3923663D01*
X20335063Y-3695408D01*
X20335064Y-3695400D01*
X20355659Y-3460004D01*
X20355659Y-3459995D01*
X20335064Y-3224599D01*
X20335063Y-3224596D01*
X20335063Y-3224592D01*
X20273903Y-2996337D01*
X20174657Y-2783504D01*
X20174040Y-2782181D01*
X20174036Y-2782173D01*
X20038498Y-2588603D01*
X20038497Y-2588602D01*
X20038495Y-2588599D01*
X19871401Y-2421505D01*
X19871397Y-2421502D01*
X19871396Y-2421501D01*
X19764007Y-2346307D01*
X19677830Y-2285965D01*
X19664447Y-2279724D01*
X19619700Y-2237997D01*
X19608025Y-2177936D01*
X19633883Y-2122483D01*
X19664448Y-2100275D01*
X19677830Y-2094035D01*
X19871401Y-1958495D01*
X20038495Y-1791401D01*
X20174035Y-1597830D01*
X20273903Y-1383663D01*
X20335063Y-1155408D01*
X20348370Y-1003315D01*
X20355659Y-920004D01*
X20355659Y-919995D01*
X20335064Y-684599D01*
X20335063Y-684596D01*
X20335063Y-684592D01*
X20273903Y-456337D01*
X20273901Y-456332D01*
X20174040Y-242181D01*
X20174036Y-242173D01*
X20165475Y-229947D01*
X20074090Y-99434D01*
X20038498Y-48603D01*
X20038497Y-48602D01*
X20038495Y-48599D01*
X19871401Y118495D01*
X19677830Y254035D01*
X19663861Y260549D01*
X19663857Y260551D01*
X19619108Y302279D01*
X19607433Y362340D01*
X19633290Y417793D01*
X19663856Y440001D01*
X19677577Y446399D01*
X19871073Y581886D01*
X20038113Y748926D01*
X20173600Y942422D01*
X20273430Y1156510D01*
X20330636Y1370000D01*
X19433686Y1370000D01*
X19459493Y1410156D01*
X19500000Y1548111D01*
X19500000Y1691889D01*
X19459493Y1829844D01*
X19433686Y1870000D01*
X20330636Y1870000D01*
X20273429Y2083494D01*
X20173605Y2297567D01*
X20173601Y2297575D01*
X20038113Y2491073D01*
X19871073Y2658113D01*
X19677577Y2793600D01*
X19463490Y2893430D01*
X19250000Y2950633D01*
X19250000Y2055501D01*
X19142315Y2104680D01*
X19035763Y2120000D01*
X18964237Y2120000D01*
X18857685Y2104680D01*
X18750000Y2055501D01*
X18750000Y2950634D01*
X18536504Y2893429D01*
X18322432Y2793605D01*
X18322424Y2793601D01*
X18128926Y2658113D01*
X17961886Y2491073D01*
X17826398Y2297575D01*
X17826394Y2297567D01*
X17726570Y2083494D01*
X17669364Y1870000D01*
X18566314Y1870000D01*
X18540507Y1829844D01*
X18500000Y1691889D01*
X18500000Y1548111D01*
X18540507Y1410156D01*
X18566314Y1370000D01*
X17669364Y1370000D01*
X17726569Y1156510D01*
X17826399Y942422D01*
X17961886Y748926D01*
X18128926Y581886D01*
X18322423Y446398D01*
X18322424Y446397D01*
X18336148Y439998D01*
X18380894Y398268D01*
X18392567Y338206D01*
X18366706Y282754D01*
X18336142Y260550D01*
X18322171Y254035D01*
X18319915Y252455D01*
X18147481Y131716D01*
X18128599Y118495D01*
X18042443Y32339D01*
X17961501Y-48603D01*
X17825963Y-242173D01*
X17825959Y-242181D01*
X17726098Y-456331D01*
X17706058Y-531124D01*
X17672733Y-582438D01*
X17615612Y-604364D01*
X17610431Y-604500D01*
X13901173Y-604500D01*
X13842982Y-585593D01*
X13820079Y-562286D01*
X13700047Y-390861D01*
X13539139Y-229953D01*
X13539135Y-229950D01*
X13539132Y-229947D01*
X13539130Y-229946D01*
X13352737Y-99434D01*
X13352733Y-99431D01*
X13327928Y-87864D01*
X13288434Y-69448D01*
X13243688Y-27722D01*
X13232013Y32339D01*
X13257870Y87792D01*
X13288435Y109999D01*
X13352476Y139862D01*
X13352478Y139863D01*
X13425472Y190972D01*
X12810450Y805995D01*
X12835199Y809554D01*
X12959445Y866295D01*
X13062673Y955742D01*
X13136519Y1070649D01*
X13162935Y1160617D01*
X13779026Y544527D01*
X13830134Y617518D01*
X13926266Y823676D01*
X13985142Y1043402D01*
X14004966Y1269996D01*
X14004966Y1270003D01*
X13985142Y1496597D01*
X13926266Y1716323D01*
X13830133Y1922483D01*
X13830133Y1922484D01*
X13779026Y1995471D01*
X13162936Y1379381D01*
X13136519Y1469351D01*
X13062673Y1584258D01*
X12959445Y1673705D01*
X12835199Y1730446D01*
X12810449Y1734004D01*
X13425471Y2349026D01*
X13352484Y2400133D01*
X13146323Y2496266D01*
X12926597Y2555142D01*
X12700003Y2574966D01*
X12699997Y2574966D01*
X12473402Y2555142D01*
X12253676Y2496266D01*
X12047518Y2400134D01*
X11974527Y2349026D01*
X12589548Y1734004D01*
X12564801Y1730446D01*
X12440555Y1673705D01*
X12337327Y1584258D01*
X12263481Y1469351D01*
X12237063Y1379379D01*
X11620972Y1995471D01*
X11569864Y1922480D01*
X11473733Y1716323D01*
X11414857Y1496597D01*
X11395034Y1270003D01*
X11395034Y1269996D01*
X11414857Y1043402D01*
X11473734Y823671D01*
X11569861Y617525D01*
X11569871Y617508D01*
X11620972Y544527D01*
X12237063Y1160618D01*
X12263481Y1070649D01*
X12337327Y955742D01*
X12440555Y866295D01*
X12564801Y809554D01*
X12589549Y805995D01*
X11974527Y190972D01*
X12047508Y139871D01*
X12047521Y139863D01*
X12111565Y109999D01*
X12156313Y68270D01*
X12167987Y8209D01*
X12142128Y-47244D01*
X12111567Y-69447D01*
X12082027Y-83222D01*
X12047266Y-99431D01*
X12047262Y-99434D01*
X11860869Y-229946D01*
X11860867Y-229947D01*
X11699947Y-390867D01*
X11699946Y-390869D01*
X11569434Y-577262D01*
X11569426Y-577276D01*
X11473262Y-783499D01*
X11414363Y-1003315D01*
X11394532Y-1229996D01*
X11394532Y-1230003D01*
X11414363Y-1456684D01*
X11473262Y-1676500D01*
X11569426Y-1882723D01*
X11569434Y-1882737D01*
X11699946Y-2069130D01*
X11699953Y-2069139D01*
X11790810Y-2159997D01*
X11818587Y-2214514D01*
X11809015Y-2274946D01*
X11790810Y-2300003D01*
X11699953Y-2390860D01*
X11699946Y-2390869D01*
X11569434Y-2577262D01*
X11569426Y-2577276D01*
X11473262Y-2783499D01*
X11414363Y-3003315D01*
X11394532Y-3229996D01*
X11394532Y-3230003D01*
X11414363Y-3456684D01*
X11414364Y-3456691D01*
X11414365Y-3456692D01*
X11453629Y-3603227D01*
X11473262Y-3676500D01*
X11569426Y-3882723D01*
X11569434Y-3882737D01*
X11699946Y-4069130D01*
X11699947Y-4069132D01*
X11699950Y-4069135D01*
X11699953Y-4069139D01*
X11860861Y-4230047D01*
X11897170Y-4255471D01*
X11933993Y-4304334D01*
X11935062Y-4365510D01*
X11899968Y-4415631D01*
X11850972Y-4434999D01*
X11842525Y-4435907D01*
X11842514Y-4435909D01*
X11707670Y-4486202D01*
X11592458Y-4572450D01*
X11592450Y-4572458D01*
X11506202Y-4687670D01*
X11455910Y-4822511D01*
X11455908Y-4822522D01*
X11449500Y-4882129D01*
X11449500Y-5005500D01*
X11430593Y-5063691D01*
X11381093Y-5099655D01*
X11350500Y-5104500D01*
X4889983Y-5104500D01*
X4875529Y-5102904D01*
X4875529Y-5102913D01*
X4869330Y-5102326D01*
X4800186Y-5104500D01*
X4770646Y-5104500D01*
X4763179Y-5105442D01*
X4758534Y-5105808D01*
X4711371Y-5107291D01*
X4690244Y-5113429D01*
X4675034Y-5116578D01*
X4653211Y-5119334D01*
X4609340Y-5136703D01*
X4604929Y-5138213D01*
X4559610Y-5151381D01*
X4540673Y-5162580D01*
X4526733Y-5169409D01*
X4506268Y-5177513D01*
X4468085Y-5205252D01*
X4464188Y-5207812D01*
X4423581Y-5231827D01*
X4408021Y-5247387D01*
X4396215Y-5257470D01*
X4378417Y-5270401D01*
X4348338Y-5306758D01*
X4345199Y-5310208D01*
X3325743Y-6329665D01*
X3271226Y-6357442D01*
X3210794Y-6347871D01*
X3198960Y-6340760D01*
X3177830Y-6325965D01*
X3177829Y-6325964D01*
X3177827Y-6325963D01*
X2994891Y-6240659D01*
X2963663Y-6226097D01*
X2735408Y-6164937D01*
X2735407Y-6164936D01*
X2735400Y-6164935D01*
X2500004Y-6144341D01*
X2499996Y-6144341D01*
X2264599Y-6164935D01*
X2036332Y-6226098D01*
X1822181Y-6325959D01*
X1822173Y-6325963D01*
X1628602Y-6461502D01*
X1628598Y-6461505D01*
X1474044Y-6616059D01*
X1419528Y-6643836D01*
X1359096Y-6634265D01*
X1315831Y-6591000D01*
X1305608Y-6556633D01*
X1304091Y-6542522D01*
X1304091Y-6542517D01*
X1273876Y-6461505D01*
X1253797Y-6407670D01*
X1167549Y-6292458D01*
X1167548Y-6292457D01*
X1167546Y-6292454D01*
X1167541Y-6292450D01*
X1167536Y-6292445D01*
X1165165Y-6290670D01*
X1163741Y-6288650D01*
X1162539Y-6287448D01*
X1162747Y-6287239D01*
X1129916Y-6240659D01*
X1125500Y-6211422D01*
X1125500Y2920014D01*
X1127095Y2934464D01*
X1127087Y2934465D01*
X1127673Y2940668D01*
X1125500Y3009828D01*
X1125500Y3039346D01*
X1125500Y3039350D01*
X1124557Y3046805D01*
X1124191Y3051449D01*
X1122710Y3098627D01*
X1116570Y3119758D01*
X1113421Y3134957D01*
X1110664Y3156792D01*
X1093289Y3200674D01*
X1091786Y3205063D01*
X1078618Y3250390D01*
X1067419Y3269325D01*
X1060589Y3283265D01*
X1052486Y3303732D01*
X1024734Y3341928D01*
X1022200Y3345785D01*
X998170Y3386420D01*
X982610Y3401978D01*
X972527Y3413784D01*
X959594Y3431587D01*
X923234Y3461665D01*
X919788Y3464801D01*
X432700Y3951890D01*
X404923Y4006406D01*
X404248Y4011522D01*
X385674Y4188256D01*
X336369Y4340000D01*
X13404891Y4340000D01*
X13425299Y4054648D01*
X13486113Y3775091D01*
X13586089Y3507046D01*
X13586093Y3507038D01*
X13723191Y3255960D01*
X13723196Y3255953D01*
X13829882Y3113437D01*
X14439438Y3722993D01*
X14488348Y3644001D01*
X14631931Y3486499D01*
X14790389Y3366835D01*
X14183437Y2759882D01*
X14325953Y2653196D01*
X14325960Y2653191D01*
X14577038Y2516093D01*
X14577046Y2516089D01*
X14845091Y2416113D01*
X15124648Y2355299D01*
X15409999Y2334891D01*
X15695351Y2355299D01*
X15974908Y2416113D01*
X16242953Y2516089D01*
X16242961Y2516093D01*
X16494033Y2653188D01*
X16636560Y2759883D01*
X16029608Y3366834D01*
X16188069Y3486499D01*
X16331652Y3644001D01*
X16380560Y3722992D01*
X16990116Y3113437D01*
X17096807Y3255960D01*
X17096809Y3255963D01*
X17233906Y3507038D01*
X17233910Y3507046D01*
X17333886Y3775091D01*
X17394700Y4054648D01*
X17415108Y4339999D01*
X17394700Y4625351D01*
X17333886Y4904908D01*
X17233910Y5172953D01*
X17233906Y5172961D01*
X17096809Y5424036D01*
X17096807Y5424039D01*
X16990116Y5566561D01*
X16380561Y4957006D01*
X16331652Y5035999D01*
X16188069Y5193501D01*
X16029609Y5313164D01*
X16636561Y5920116D01*
X16494039Y6026807D01*
X16494036Y6026809D01*
X16242961Y6163906D01*
X16242953Y6163910D01*
X15974908Y6263886D01*
X15695351Y6324700D01*
X15410000Y6345108D01*
X15124648Y6324700D01*
X14845091Y6263886D01*
X14577046Y6163910D01*
X14577038Y6163906D01*
X14325963Y6026809D01*
X14325960Y6026807D01*
X14183437Y5920116D01*
X14790389Y5313163D01*
X14631931Y5193501D01*
X14488348Y5035999D01*
X14439437Y4957005D01*
X13829883Y5566560D01*
X13723188Y5424033D01*
X13586093Y5172961D01*
X13586089Y5172953D01*
X13486113Y4904908D01*
X13425299Y4625351D01*
X13404891Y4340000D01*
X336369Y4340000D01*
X327179Y4368284D01*
X232533Y4532216D01*
X105871Y4672888D01*
X-47270Y4784151D01*
X-220197Y4861144D01*
X-405354Y4900500D01*
X-594646Y4900500D01*
X-779803Y4861144D01*
X-952730Y4784151D01*
X-1105871Y4672888D01*
X-1232533Y4532216D01*
X-1327179Y4368284D01*
X-1385674Y4188256D01*
X-1405460Y4000000D01*
X-1385674Y3811744D01*
X-1327179Y3631716D01*
X-1327176Y3631711D01*
X-1327174Y3631706D01*
X-1302350Y3588710D01*
X-1232533Y3467784D01*
X-1199941Y3431587D01*
X-1105875Y3327116D01*
X-1105870Y3327111D01*
X-1035565Y3276032D01*
X-952730Y3215849D01*
X-952725Y3215847D01*
X-952722Y3215845D01*
X-894673Y3190000D01*
X-779803Y3138856D01*
X-779800Y3138855D01*
X-779799Y3138855D01*
X-761507Y3134967D01*
X-594646Y3099500D01*
X-525098Y3099500D01*
X-466907Y3080593D01*
X-455094Y3070504D01*
X-154496Y2769906D01*
X-126719Y2715389D01*
X-125500Y2699902D01*
X-125500Y-6050503D01*
X-144406Y-6108691D01*
X-193906Y-6144655D01*
X-224499Y-6149500D01*
X-937866Y-6149500D01*
X-937869Y-6149500D01*
X-937872Y-6149501D01*
X-952229Y-6151044D01*
X-997480Y-6155908D01*
X-997485Y-6155909D01*
X-1132329Y-6206202D01*
X-1178357Y-6240659D01*
X-1247546Y-6292454D01*
X-1247548Y-6292457D01*
X-1247549Y-6292458D01*
X-1333797Y-6407670D01*
X-1377373Y-6524504D01*
X-1384091Y-6542517D01*
X-1390500Y-6602127D01*
X-1390499Y-8397872D01*
X-1384091Y-8457483D01*
X-1362770Y-8514648D01*
X-1346850Y-8557333D01*
X-1333796Y-8592331D01*
X-1247546Y-8707546D01*
X-1238080Y-8714632D01*
X-1229244Y-8721247D01*
X-1193991Y-8771256D01*
X-1194865Y-8832435D01*
X-1231532Y-8881416D01*
X-1288573Y-8899500D01*
X-10927415Y-8899500D01*
X-10985606Y-8880593D01*
X-10997412Y-8870509D01*
X-10997738Y-8870184D01*
X-10997738Y-8870183D01*
X-10997741Y-8870181D01*
X-11150476Y-8774211D01*
X-11320738Y-8714633D01*
X-11320742Y-8714632D01*
X-11500000Y-8694435D01*
X-11679257Y-8714632D01*
X-11679261Y-8714633D01*
X-11849522Y-8774211D01*
X-11849523Y-8774211D01*
X-12002258Y-8870181D01*
X-12002259Y-8870182D01*
X-12002262Y-8870184D01*
X-12129816Y-8997738D01*
X-12129817Y-8997740D01*
X-12129818Y-8997741D01*
X-12204163Y-9116061D01*
X-12225789Y-9150478D01*
X-12285368Y-9320745D01*
X-12305565Y-9500000D01*
X-18798960Y-9500000D01*
X-18890284Y-9420868D01*
X-19014654Y-9364069D01*
X-19014663Y-9364067D01*
X-19115984Y-9349500D01*
X-19115989Y-9349500D01*
X-19184011Y-9349500D01*
X-19184016Y-9349500D01*
X-19285336Y-9364067D01*
X-19285345Y-9364069D01*
X-19409715Y-9420868D01*
X-19409716Y-9420869D01*
X-19409718Y-9420870D01*
X-19513055Y-9510411D01*
X-19586978Y-9625439D01*
X-19625500Y-9756633D01*
X-19625500Y-9893367D01*
X-20698966Y-9893367D01*
X-20575795Y-9825002D01*
X-20575780Y-9824991D01*
X-20421474Y-9692525D01*
X-20421463Y-9692513D01*
X-20296980Y-9531693D01*
X-20296979Y-9531691D01*
X-20207413Y-9349097D01*
X-20181754Y-9250000D01*
X-21125376Y-9250000D01*
X-21052455Y-9235495D01*
X-20969760Y-9180240D01*
X-20914505Y-9097545D01*
X-20895102Y-9000000D01*
X-20914505Y-8902455D01*
X-20969760Y-8819760D01*
X-21052455Y-8764505D01*
X-21125376Y-8750000D01*
X-20176633Y-8750000D01*
X-20176632Y-8749999D01*
X-20176930Y-8748059D01*
X-20176930Y-8748058D01*
X-20247566Y-8557333D01*
X-20355147Y-8384735D01*
X-20355152Y-8384729D01*
X-20495266Y-8237330D01*
X-20662187Y-8121148D01*
X-20662198Y-8121142D01*
X-20849094Y-8040939D01*
X-20849097Y-8040938D01*
X-21048303Y-8000000D01*
X-21249999Y-8000000D01*
X-21250000Y-8000001D01*
X-21250000Y-8749999D01*
X-21249999Y-8750000D01*
X-21750000Y-8750000D01*
X-21750000Y-8000000D01*
X-21900714Y-8000000D01*
X-22052335Y-8015418D01*
X-22052337Y-8015419D01*
X-22246391Y-8076303D01*
X-22246392Y-8076304D01*
X-22387989Y-8154896D01*
X-22448044Y-8166605D01*
X-22503511Y-8140778D01*
X-22533204Y-8087281D01*
X-22535034Y-8068336D01*
X-22535034Y-537367D01*
X-22516127Y-479176D01*
X-22466627Y-443212D01*
X-22405441Y-443212D01*
X-22386533Y-451631D01*
X-22303308Y-499681D01*
X-22118379Y-559769D01*
X-21973476Y-574999D01*
X-21973472Y-575000D01*
X-21750001Y-575000D01*
X-21750000Y-574999D01*
X-21750000Y100000D01*
X-21249999Y100000D01*
X-21250000Y99999D01*
X-21250000Y-574998D01*
X-21249999Y-575000D01*
X-21026528Y-575000D01*
X-21026523Y-574999D01*
X-20881620Y-559769D01*
X-20696691Y-499681D01*
X-20696686Y-499679D01*
X-20528307Y-402464D01*
X-20528301Y-402460D01*
X-20383809Y-272359D01*
X-20383808Y-272358D01*
X-20269512Y-115044D01*
X-20269508Y-115037D01*
X-20190428Y62580D01*
X-20190426Y62588D01*
X-20182474Y100000D01*
X-21125376Y100000D01*
X-21052455Y114505D01*
X-20969760Y169760D01*
X-20914505Y252455D01*
X-20895102Y350000D01*
X-20914505Y447545D01*
X-20969760Y530240D01*
X-21052455Y585495D01*
X-21125376Y600000D01*
X-20182474Y600000D01*
X-20190426Y637411D01*
X-20190427Y637415D01*
X-20269510Y815040D01*
X-20269512Y815043D01*
X-20383809Y972359D01*
X-20528301Y1102460D01*
X-20528307Y1102464D01*
X-20535528Y1106633D01*
X-19625500Y1106633D01*
X-19586978Y975439D01*
X-19513055Y860411D01*
X-19409718Y770870D01*
X-19409716Y770869D01*
X-19409715Y770868D01*
X-19285345Y714069D01*
X-19285336Y714067D01*
X-19184016Y699500D01*
X-19184011Y699500D01*
X-19115984Y699500D01*
X-19014663Y714067D01*
X-19014654Y714069D01*
X-18890284Y770868D01*
X-18786946Y860410D01*
X-18781885Y868284D01*
X-18713022Y975439D01*
X-18713021Y975441D01*
X-18674500Y1106631D01*
X-18674500Y1243368D01*
X-18713021Y1374558D01*
X-18713022Y1374561D01*
X-18786945Y1489589D01*
X-18890282Y1579130D01*
X-18890284Y1579131D01*
X-19014654Y1635930D01*
X-19014663Y1635932D01*
X-19115984Y1650500D01*
X-19115989Y1650500D01*
X-19184011Y1650500D01*
X-19184016Y1650500D01*
X-19285336Y1635932D01*
X-19285337Y1635931D01*
X-19285342Y1635931D01*
X-19285343Y1635930D01*
X-19285345Y1635930D01*
X-19312444Y1623554D01*
X-19409718Y1579130D01*
X-19513055Y1489589D01*
X-19586978Y1374561D01*
X-19625500Y1243367D01*
X-19625500Y1106633D01*
X-20535528Y1106633D01*
X-20696686Y1199679D01*
X-20696691Y1199681D01*
X-20881620Y1259769D01*
X-21026523Y1274999D01*
X-21026528Y1275000D01*
X-21249999Y1275000D01*
X-21250000Y1274998D01*
X-21250000Y600001D01*
X-21249999Y600000D01*
X-21750000Y600000D01*
X-21750000Y1274999D01*
X-21750001Y1275000D01*
X-21973472Y1275000D01*
X-21973476Y1274999D01*
X-22118379Y1259769D01*
X-22303308Y1199681D01*
X-22386533Y1151631D01*
X-22446381Y1138909D01*
X-22502277Y1163795D01*
X-22532870Y1216783D01*
X-22535034Y1237367D01*
X-22535034Y4000000D01*
X-20805565Y4000000D01*
X-20785368Y3820745D01*
X-20785367Y3820742D01*
X-20785366Y3820738D01*
X-20769393Y3775091D01*
X-20725789Y3650478D01*
X-20725788Y3650477D01*
X-20725788Y3650476D01*
X-20686978Y3588710D01*
X-20629816Y3497738D01*
X-20502262Y3370184D01*
X-20502259Y3370182D01*
X-20502258Y3370181D01*
X-20349523Y3274211D01*
X-20179261Y3214633D01*
X-20179257Y3214632D01*
X-20000000Y3194435D01*
X-19820742Y3214632D01*
X-19820738Y3214633D01*
X-19650477Y3274211D01*
X-19650476Y3274211D01*
X-19497741Y3370181D01*
X-19370181Y3497741D01*
X-19274211Y3650476D01*
X-19274211Y3650477D01*
X-19214632Y3820742D01*
X-19214226Y3822523D01*
X-19213702Y3823399D01*
X-19212795Y3825993D01*
X-19212264Y3825807D01*
X-19182848Y3875050D01*
X-19126588Y3899101D01*
X-19117707Y3899500D01*
X-17902431Y3899500D01*
X-17844240Y3880593D01*
X-17808276Y3831093D01*
X-17804053Y3811587D01*
X-17785368Y3645745D01*
X-17785367Y3645742D01*
X-17785366Y3645738D01*
X-17774594Y3614955D01*
X-17725789Y3475478D01*
X-17725788Y3475477D01*
X-17725788Y3475476D01*
X-17643048Y3343796D01*
X-17629816Y3322738D01*
X-17502262Y3195184D01*
X-17502259Y3195182D01*
X-17502258Y3195181D01*
X-17349523Y3099211D01*
X-17179261Y3039633D01*
X-17179257Y3039632D01*
X-17000000Y3019435D01*
X-16820742Y3039632D01*
X-16820738Y3039633D01*
X-16650477Y3099211D01*
X-16650476Y3099211D01*
X-16497741Y3195181D01*
X-16370179Y3322743D01*
X-16283325Y3460971D01*
X-16236357Y3500183D01*
X-16175310Y3504298D01*
X-16123503Y3471745D01*
X-16100724Y3414958D01*
X-16100500Y3408299D01*
X-16100500Y3042592D01*
X-16100921Y3036157D01*
X-16105682Y3000000D01*
X-16100500Y2960639D01*
X-16085044Y2843238D01*
X-16024536Y2697159D01*
X-15994575Y2658113D01*
X-15925623Y2568253D01*
X-15905199Y2510577D01*
X-15905460Y2503964D01*
X-15905460Y2500003D01*
X-15905460Y2500000D01*
X-15885674Y2311744D01*
X-15827179Y2131716D01*
X-15827176Y2131711D01*
X-15827174Y2131706D01*
X-15820415Y2120000D01*
X-15732533Y1967784D01*
X-15605871Y1827112D01*
X-15452730Y1715849D01*
X-15452725Y1715847D01*
X-15452722Y1715845D01*
X-15390756Y1688256D01*
X-15279803Y1638856D01*
X-15279800Y1638855D01*
X-15279799Y1638855D01*
X-15244580Y1631369D01*
X-15094646Y1599500D01*
X-15025098Y1599500D01*
X-14966907Y1580593D01*
X-14955094Y1570504D01*
X-13498848Y114257D01*
X-13489764Y102918D01*
X-13489757Y102924D01*
X-13485789Y98129D01*
X-13485786Y98123D01*
X-13447937Y62580D01*
X-13435363Y50772D01*
X-13414474Y29882D01*
X-13408527Y25269D01*
X-13404992Y22251D01*
X-13370582Y-10062D01*
X-13351299Y-20661D01*
X-13338317Y-29189D01*
X-13320936Y-42673D01*
X-13288963Y-56507D01*
X-13277631Y-61412D01*
X-13273447Y-63461D01*
X-13232092Y-86197D01*
X-13210770Y-91671D01*
X-13196087Y-96699D01*
X-13175896Y-105437D01*
X-13129286Y-112818D01*
X-13124754Y-113756D01*
X-13079019Y-125500D01*
X-13057017Y-125500D01*
X-13041531Y-126718D01*
X-13019804Y-130160D01*
X-12992765Y-127604D01*
X-12972828Y-125720D01*
X-12968167Y-125500D01*
X-2692617Y-125500D01*
X-2634426Y-144407D01*
X-2619046Y-158256D01*
X-2605871Y-172888D01*
X-2452730Y-284151D01*
X-2279803Y-361144D01*
X-2094646Y-400500D01*
X-2094643Y-400500D01*
X-1905357Y-400500D01*
X-1905354Y-400500D01*
X-1720197Y-361144D01*
X-1547270Y-284151D01*
X-1394129Y-172888D01*
X-1368484Y-144407D01*
X-1267469Y-32218D01*
X-1267467Y-32216D01*
X-1250750Y-3261D01*
X-1172825Y131706D01*
X-1172819Y131720D01*
X-1114327Y311738D01*
X-1110305Y350000D01*
X-1094540Y500000D01*
X-1114326Y688256D01*
X-1114326Y688258D01*
X-1114327Y688261D01*
X-1172819Y868279D01*
X-1172825Y868293D01*
X-1267465Y1032212D01*
X-1267467Y1032216D01*
X-1334471Y1106631D01*
X-1394124Y1172883D01*
X-1394129Y1172888D01*
X-1431007Y1199681D01*
X-1547270Y1284151D01*
X-1720197Y1361144D01*
X-1905354Y1400500D01*
X-1995540Y1400500D01*
X-2053731Y1419407D01*
X-2089695Y1468907D01*
X-2093805Y1494860D01*
X-2093998Y1494840D01*
X-2094384Y1498519D01*
X-2094540Y1499500D01*
X-2094540Y1499996D01*
X-2099597Y1548111D01*
X-2114326Y1688256D01*
X-2114326Y1688258D01*
X-2114327Y1688261D01*
X-2172819Y1868279D01*
X-2172825Y1868293D01*
X-2267465Y2032212D01*
X-2267467Y2032216D01*
X-2346508Y2120000D01*
X-2394124Y2172883D01*
X-2394129Y2172888D01*
X-2547270Y2284151D01*
X-2720197Y2361144D01*
X-2905354Y2400500D01*
X-3094646Y2400500D01*
X-3279803Y2361144D01*
X-3452730Y2284151D01*
X-3605871Y2172888D01*
X-3615027Y2162718D01*
X-3619046Y2158256D01*
X-3672034Y2127663D01*
X-3692617Y2125500D01*
X-12199901Y2125500D01*
X-12258092Y2144407D01*
X-12269905Y2154496D01*
X-13545905Y3430496D01*
X-13573682Y3485013D01*
X-13564111Y3545445D01*
X-13520846Y3588710D01*
X-13475901Y3599500D01*
X-12262609Y3599500D01*
X-12256141Y3599076D01*
X-12220001Y3594318D01*
X-12220000Y3594318D01*
X-12219999Y3594318D01*
X-12063241Y3614955D01*
X-12063238Y3614955D01*
X-12063238Y3614956D01*
X-11993117Y3644001D01*
X-11917160Y3675463D01*
X-11900488Y3688256D01*
X-11791723Y3771713D01*
X-11791717Y3771719D01*
X-11769525Y3800638D01*
X-11765253Y3805510D01*
X-10893324Y4677439D01*
X-10838807Y4705216D01*
X-10797698Y4703062D01*
X-10703933Y4677939D01*
X-10655408Y4664937D01*
X-10655405Y4664936D01*
X-10655399Y4664935D01*
X-10655404Y4664935D01*
X-10420004Y4644341D01*
X-10420000Y4644341D01*
X-10419996Y4644341D01*
X-10184599Y4664935D01*
X-9956337Y4726097D01*
X-9742171Y4825964D01*
X-9548603Y4961501D01*
X-9381501Y5128603D01*
X-9245963Y5322172D01*
X-9245962Y5322175D01*
X-9239445Y5336149D01*
X-9197714Y5380894D01*
X-9137652Y5392565D01*
X-9082201Y5366704D01*
X-9059997Y5336140D01*
X-9053601Y5322424D01*
X-9053601Y5322423D01*
X-8918113Y5128926D01*
X-8751073Y4961886D01*
X-8557577Y4826399D01*
X-8343489Y4726569D01*
X-8129999Y4669364D01*
X-8129999Y5564498D01*
X-8022315Y5515320D01*
X-7915763Y5500000D01*
X-7844237Y5500000D01*
X-7737685Y5515320D01*
X-7630000Y5564498D01*
X-7630000Y4669364D01*
X-7416510Y4726569D01*
X-7202422Y4826399D01*
X-7008926Y4961886D01*
X-6841886Y5128926D01*
X-6706399Y5322422D01*
X-6606569Y5536510D01*
X-6549364Y5750000D01*
X-7446314Y5750000D01*
X-7420507Y5790156D01*
X-7380000Y5928111D01*
X-7380000Y6071889D01*
X-7420507Y6209844D01*
X-7446314Y6250000D01*
X-6549364Y6250000D01*
X-6606570Y6463494D01*
X-6706394Y6677567D01*
X-6706398Y6677575D01*
X-6841886Y6871073D01*
X-7008926Y7038113D01*
X-7202422Y7173600D01*
X-7416509Y7273430D01*
X-7630000Y7330634D01*
X-7630000Y6435501D01*
X-7737685Y6484680D01*
X-7844237Y6500000D01*
X-7915763Y6500000D01*
X-8022315Y6484680D01*
X-8129999Y6435501D01*
X-8129999Y7330633D01*
X-8343495Y7273429D01*
X-8557567Y7173605D01*
X-8557575Y7173601D01*
X-8751073Y7038113D01*
X-8918113Y6871073D01*
X-9053598Y6677578D01*
X-9053600Y6677576D01*
X-9059996Y6663859D01*
X-9101722Y6619108D01*
X-9161783Y6607430D01*
X-9217237Y6633285D01*
X-9239447Y6663852D01*
X-9245963Y6677826D01*
X-9381501Y6871396D01*
X-9381502Y6871397D01*
X-9381505Y6871401D01*
X-9548599Y7038495D01*
X-9742170Y7174035D01*
X-9956337Y7273903D01*
X-10184592Y7335063D01*
X-10184596Y7335063D01*
X-10184599Y7335064D01*
X-10419996Y7355659D01*
X-10420004Y7355659D01*
X-10655400Y7335064D01*
X-10655401Y7335063D01*
X-10655408Y7335063D01*
X-10883663Y7273903D01*
X-11097829Y7174035D01*
X-11291401Y7038495D01*
X-11458495Y6871401D01*
X-11594035Y6677829D01*
X-11600275Y6664447D01*
X-11642003Y6619699D01*
X-11702064Y6608024D01*
X-11757517Y6633882D01*
X-11779725Y6664447D01*
X-11785964Y6677827D01*
X-11921501Y6871396D01*
X-11921502Y6871397D01*
X-11921505Y6871401D01*
X-12088599Y7038495D01*
X-12282170Y7174035D01*
X-12496337Y7273903D01*
X-12724592Y7335063D01*
X-12724596Y7335063D01*
X-12724599Y7335064D01*
X-12959996Y7355659D01*
X-12960004Y7355659D01*
X-13195400Y7335064D01*
X-13195401Y7335063D01*
X-13195408Y7335063D01*
X-13423663Y7273903D01*
X-13637829Y7174035D01*
X-13831401Y7038495D01*
X-13985956Y6883939D01*
X-14040471Y6856163D01*
X-14100903Y6865734D01*
X-14144168Y6908999D01*
X-14154391Y6943362D01*
X-14155908Y6957481D01*
X-14155909Y6957485D01*
X-14206202Y7092329D01*
X-14292450Y7207541D01*
X-14292451Y7207542D01*
X-14292454Y7207546D01*
X-14380462Y7273429D01*
X-14407670Y7293797D01*
X-14542511Y7344089D01*
X-14542512Y7344089D01*
X-14542517Y7344091D01*
X-14602127Y7350500D01*
X-16397872Y7350499D01*
X-16457483Y7344091D01*
X-16524906Y7318943D01*
X-16592329Y7293797D01*
X-16592329Y7293796D01*
X-16592331Y7293796D01*
X-16707546Y7207546D01*
X-16793796Y7092331D01*
X-16844091Y6957483D01*
X-16850500Y6897873D01*
X-16850499Y6180240D01*
X-16850499Y5539742D01*
X-16869406Y5481551D01*
X-16879496Y5469738D01*
X-17219739Y5129496D01*
X-17274255Y5101719D01*
X-17289742Y5100500D01*
X-18575500Y5100500D01*
X-18633691Y5119407D01*
X-18669655Y5168907D01*
X-18674500Y5199500D01*
X-18674500Y5243368D01*
X-18713021Y5374558D01*
X-18713022Y5374561D01*
X-18786945Y5489589D01*
X-18890282Y5579130D01*
X-18890284Y5579131D01*
X-19014654Y5635930D01*
X-19014663Y5635932D01*
X-19115984Y5650500D01*
X-19115989Y5650500D01*
X-19184011Y5650500D01*
X-19184016Y5650500D01*
X-19285336Y5635932D01*
X-19285337Y5635931D01*
X-19285342Y5635931D01*
X-19285343Y5635930D01*
X-19285345Y5635930D01*
X-19347530Y5607530D01*
X-19409718Y5579130D01*
X-19513055Y5489589D01*
X-19586978Y5374561D01*
X-19625500Y5243367D01*
X-19625500Y5243366D01*
X-19625500Y5164142D01*
X-19644407Y5105951D01*
X-19686613Y5072678D01*
X-19802841Y5024536D01*
X-19928282Y4928282D01*
X-19950480Y4899351D01*
X-19954742Y4894492D01*
X-20024720Y4824513D01*
X-20079234Y4796737D01*
X-20083606Y4796144D01*
X-20179255Y4785368D01*
X-20179260Y4785366D01*
X-20179261Y4785366D01*
X-20182733Y4784151D01*
X-20349522Y4725789D01*
X-20502262Y4629816D01*
X-20629816Y4502262D01*
X-20725789Y4349522D01*
X-20785368Y4179255D01*
X-20805565Y4000000D01*
X-22535034Y4000000D01*
X-22535034Y5068893D01*
X-22516127Y5127084D01*
X-22466627Y5163048D01*
X-22405441Y5163048D01*
X-22379479Y5150149D01*
X-22337810Y5121147D01*
X-22337801Y5121142D01*
X-22150905Y5040939D01*
X-22150902Y5040938D01*
X-21951696Y5000000D01*
X-21750000Y5000000D01*
X-21750000Y5750000D01*
X-21249999Y5750000D01*
X-21250000Y5749998D01*
X-21250000Y5000001D01*
X-21249999Y5000000D01*
X-21099286Y5000000D01*
X-20947664Y5015418D01*
X-20947662Y5015419D01*
X-20753608Y5076303D01*
X-20753607Y5076304D01*
X-20575795Y5174997D01*
X-20575780Y5175008D01*
X-20421474Y5307474D01*
X-20421463Y5307486D01*
X-20296980Y5468306D01*
X-20296979Y5468308D01*
X-20207413Y5650902D01*
X-20181754Y5750000D01*
X-21125376Y5750000D01*
X-21052455Y5764505D01*
X-20969760Y5819760D01*
X-20914505Y5902455D01*
X-20895102Y6000000D01*
X-20914505Y6097545D01*
X-20969760Y6180240D01*
X-21052455Y6235495D01*
X-21125376Y6250000D01*
X-20176632Y6250000D01*
X-20176930Y6251940D01*
X-20176930Y6251941D01*
X-20247566Y6442666D01*
X-20355147Y6615264D01*
X-20355152Y6615270D01*
X-20495266Y6762669D01*
X-20662187Y6878851D01*
X-20662198Y6878857D01*
X-20849094Y6959060D01*
X-20849097Y6959061D01*
X-21048303Y6999999D01*
X-21048311Y7000000D01*
X-21249999Y7000000D01*
X-21250000Y6999998D01*
X-21250000Y6250001D01*
X-21249999Y6250000D01*
X-21750000Y6250000D01*
X-21750000Y6999999D01*
X-21750001Y7000000D01*
X-21900714Y7000000D01*
X-22052335Y6984581D01*
X-22052337Y6984580D01*
X-22246391Y6923696D01*
X-22246392Y6923695D01*
X-22387989Y6845103D01*
X-22448043Y6833394D01*
X-22503511Y6859221D01*
X-22533204Y6912718D01*
X-22535034Y6931663D01*
X-22535034Y14816986D01*
X-18411034Y14816986D01*
X-18371460Y14453103D01*
X-18292774Y14095632D01*
X-18175901Y13748764D01*
X-18022209Y13416565D01*
X-17833502Y13102931D01*
X-17833498Y13102926D01*
X-17611988Y12811534D01*
X-17360278Y12545808D01*
X-17360268Y12545798D01*
X-17081306Y12308846D01*
X-17081300Y12308841D01*
X-16778342Y12103430D01*
X-16454951Y11931979D01*
X-16114919Y11796498D01*
X-16114914Y11796496D01*
X-16114910Y11796495D01*
X-16114905Y11796493D01*
X-15762239Y11698576D01*
X-15401024Y11639357D01*
X-15208799Y11628936D01*
X-15126981Y11624500D01*
X-15126974Y11624500D01*
X-14944094Y11624500D01*
X-14944087Y11624500D01*
X-14865615Y11628754D01*
X-14670043Y11639357D01*
X-14308828Y11698576D01*
X-13956162Y11796493D01*
X-13956157Y11796495D01*
X-13616116Y11931979D01*
X-13489035Y11999353D01*
X-13292726Y12103430D01*
X-12989768Y12308841D01*
X-12989767Y12308841D01*
X-12989761Y12308846D01*
X-12710799Y12545798D01*
X-12710789Y12545808D01*
X-12459079Y12811534D01*
X-12237569Y13102926D01*
X-12237566Y13102931D01*
X-12048859Y13416563D01*
X-11895169Y13748758D01*
X-11778291Y14095639D01*
X-11778291Y14095641D01*
X-11699608Y14453097D01*
X-11660034Y14816985D01*
X-11660034Y14866945D01*
X-9275500Y14866945D01*
X-9235839Y14603806D01*
X-9157401Y14349518D01*
X-9041940Y14109761D01*
X-8892035Y13889890D01*
X-8892030Y13889885D01*
X-8892029Y13889883D01*
X-8711035Y13694818D01*
X-8502981Y13528899D01*
X-8272533Y13395850D01*
X-8272524Y13395845D01*
X-8272521Y13395844D01*
X-8272517Y13395842D01*
X-8272514Y13395841D01*
X-8024808Y13298623D01*
X-7765368Y13239407D01*
X-7765362Y13239406D01*
X-7566448Y13224500D01*
X-7566442Y13224500D01*
X-7433552Y13224500D01*
X-7234637Y13239406D01*
X-7234631Y13239407D01*
X-6975191Y13298623D01*
X-6727485Y13395841D01*
X-6727466Y13395850D01*
X-6497018Y13528899D01*
X-6288964Y13694818D01*
X-6107970Y13889883D01*
X-6107965Y13889890D01*
X-5958060Y14109760D01*
X-5958058Y14109763D01*
X-5958056Y14109767D01*
X-5842599Y14349517D01*
X-5764162Y14603801D01*
X-5764160Y14603810D01*
X-5732029Y14816986D01*
X-3375500Y14816986D01*
X-3335926Y14453103D01*
X-3257240Y14095632D01*
X-3140367Y13748764D01*
X-2986675Y13416565D01*
X-2797968Y13102931D01*
X-2797964Y13102926D01*
X-2576454Y12811534D01*
X-2324744Y12545808D01*
X-2324734Y12545798D01*
X-2045772Y12308846D01*
X-2045766Y12308841D01*
X-1742808Y12103430D01*
X-1419417Y11931979D01*
X-1079385Y11796498D01*
X-1079380Y11796496D01*
X-1079376Y11796495D01*
X-1079371Y11796493D01*
X-726705Y11698576D01*
X-365490Y11639357D01*
X-173265Y11628936D01*
X-91447Y11624500D01*
X-91440Y11624500D01*
X91440Y11624500D01*
X91447Y11624500D01*
X173265Y11628936D01*
X365490Y11639357D01*
X726705Y11698576D01*
X1079371Y11796493D01*
X1079376Y11796495D01*
X1079380Y11796496D01*
X1079385Y11796498D01*
X1419417Y11931979D01*
X1742808Y12103430D01*
X2045766Y12308841D01*
X2045772Y12308846D01*
X2324734Y12545798D01*
X2324744Y12545808D01*
X2576454Y12811534D01*
X2797964Y13102926D01*
X2797968Y13102931D01*
X2986675Y13416565D01*
X3140367Y13748764D01*
X3257240Y14095632D01*
X3335926Y14453103D01*
X3375500Y14816986D01*
X3375500Y14866941D01*
X5688966Y14866941D01*
X5728626Y14603810D01*
X5728628Y14603801D01*
X5807065Y14349517D01*
X5922522Y14109768D01*
X5922523Y14109767D01*
X5922526Y14109761D01*
X6072431Y13889890D01*
X6072436Y13889883D01*
X6253430Y13694818D01*
X6461484Y13528899D01*
X6691932Y13395850D01*
X6691951Y13395841D01*
X6939657Y13298623D01*
X7199097Y13239407D01*
X7199103Y13239406D01*
X7398018Y13224500D01*
X7398024Y13224500D01*
X7530914Y13224500D01*
X7729828Y13239406D01*
X7729834Y13239407D01*
X7989274Y13298623D01*
X8236980Y13395841D01*
X8236983Y13395842D01*
X8236987Y13395844D01*
X8236990Y13395845D01*
X8236999Y13395850D01*
X8467447Y13528899D01*
X8675501Y13694818D01*
X8856495Y13889883D01*
X8856496Y13889885D01*
X8856501Y13889890D01*
X9006406Y14109760D01*
X9121867Y14349518D01*
X9200305Y14603806D01*
X9232436Y14816985D01*
X11624500Y14816985D01*
X11664074Y14453097D01*
X11742757Y14095641D01*
X11742757Y14095639D01*
X11859635Y13748758D01*
X12013325Y13416563D01*
X12202032Y13102931D01*
X12202035Y13102926D01*
X12423545Y12811534D01*
X12675255Y12545808D01*
X12675265Y12545798D01*
X12954227Y12308846D01*
X12954233Y12308841D01*
X12954234Y12308841D01*
X13257192Y12103430D01*
X13453501Y11999353D01*
X13580582Y11931979D01*
X13920623Y11796495D01*
X13920628Y11796493D01*
X14273294Y11698576D01*
X14634509Y11639357D01*
X14830081Y11628754D01*
X14908553Y11624500D01*
X14908560Y11624500D01*
X15091440Y11624500D01*
X15091447Y11624500D01*
X15173265Y11628936D01*
X15365490Y11639357D01*
X15726705Y11698576D01*
X16079371Y11796493D01*
X16079376Y11796495D01*
X16079380Y11796496D01*
X16079385Y11796498D01*
X16419417Y11931979D01*
X16742808Y12103430D01*
X17045766Y12308841D01*
X17045772Y12308846D01*
X17324734Y12545798D01*
X17324744Y12545808D01*
X17576454Y12811534D01*
X17797964Y13102926D01*
X17797968Y13102931D01*
X17986675Y13416565D01*
X18140367Y13748764D01*
X18257240Y14095632D01*
X18335926Y14453103D01*
X18375500Y14816986D01*
X18375500Y15183014D01*
X18335926Y15546897D01*
X18257240Y15904368D01*
X18140367Y16251236D01*
X17986675Y16583435D01*
X17797968Y16897069D01*
X17576457Y17188462D01*
X17324739Y17454197D01*
X17045766Y17691159D01*
X16742808Y17896570D01*
X16419417Y18068021D01*
X16079385Y18203502D01*
X15726699Y18301425D01*
X15365492Y18360642D01*
X15091447Y18375500D01*
X14908553Y18375500D01*
X14634508Y18360642D01*
X14273301Y18301425D01*
X14273294Y18301423D01*
X13920628Y18203506D01*
X13920624Y18203504D01*
X13920615Y18203502D01*
X13580583Y18068021D01*
X13257192Y17896570D01*
X12954234Y17691159D01*
X12954227Y17691153D01*
X12675265Y17454201D01*
X12675255Y17454191D01*
X12423545Y17188465D01*
X12423543Y17188462D01*
X12202032Y16897069D01*
X12119917Y16760593D01*
X12013325Y16583436D01*
X11859635Y16251241D01*
X11742757Y15904360D01*
X11742757Y15904358D01*
X11664074Y15546902D01*
X11624500Y15183014D01*
X11624500Y14816985D01*
X9232436Y14816985D01*
X9239966Y14866945D01*
X9239966Y15133055D01*
X9200305Y15396194D01*
X9121867Y15650482D01*
X9006406Y15890239D01*
X8856501Y16110110D01*
X8675499Y16305183D01*
X8467446Y16471101D01*
X8236987Y16604156D01*
X7989271Y16701377D01*
X7729833Y16760593D01*
X7639412Y16767368D01*
X7530914Y16775500D01*
X7530908Y16775500D01*
X7398024Y16775500D01*
X7398018Y16775500D01*
X7278669Y16766555D01*
X7199099Y16760593D01*
X6939661Y16701377D01*
X6939657Y16701376D01*
X6786998Y16641461D01*
X6691945Y16604156D01*
X6691936Y16604151D01*
X6691932Y16604149D01*
X6461484Y16471100D01*
X6253430Y16305181D01*
X6072436Y16110116D01*
X6072434Y16110113D01*
X6072431Y16110110D01*
X5922526Y15890240D01*
X5922522Y15890232D01*
X5807065Y15650482D01*
X5728628Y15396198D01*
X5728626Y15396189D01*
X5688966Y15133058D01*
X5688966Y14866941D01*
X3375500Y14866941D01*
X3375500Y15183014D01*
X3335926Y15546897D01*
X3257240Y15904368D01*
X3140367Y16251236D01*
X2986675Y16583435D01*
X2797968Y16897069D01*
X2576457Y17188462D01*
X2324739Y17454197D01*
X2045766Y17691159D01*
X1742808Y17896570D01*
X1419417Y18068021D01*
X1079385Y18203502D01*
X726699Y18301425D01*
X365492Y18360642D01*
X91447Y18375500D01*
X-91447Y18375500D01*
X-365492Y18360642D01*
X-726699Y18301425D01*
X-1079385Y18203502D01*
X-1419417Y18068021D01*
X-1742808Y17896570D01*
X-2045766Y17691159D01*
X-2324739Y17454197D01*
X-2576457Y17188462D01*
X-2797968Y16897069D01*
X-2986675Y16583435D01*
X-3140367Y16251236D01*
X-3257240Y15904368D01*
X-3335926Y15546897D01*
X-3375500Y15183014D01*
X-3375500Y14816986D01*
X-5732029Y14816986D01*
X-5724500Y14866941D01*
X-5724500Y15133058D01*
X-5764160Y15396189D01*
X-5764162Y15396198D01*
X-5842599Y15650482D01*
X-5958056Y15890231D01*
X-5958057Y15890232D01*
X-5958060Y15890239D01*
X-6107965Y16110110D01*
X-6107968Y16110113D01*
X-6107970Y16110116D01*
X-6288964Y16305181D01*
X-6497018Y16471100D01*
X-6727466Y16604149D01*
X-6727470Y16604151D01*
X-6727479Y16604156D01*
X-6822532Y16641461D01*
X-6975191Y16701376D01*
X-6975195Y16701377D01*
X-7234633Y16760593D01*
X-7314202Y16766555D01*
X-7433552Y16775500D01*
X-7433558Y16775500D01*
X-7566442Y16775500D01*
X-7566448Y16775500D01*
X-7674946Y16767368D01*
X-7765367Y16760593D01*
X-8024805Y16701377D01*
X-8272521Y16604156D01*
X-8502980Y16471101D01*
X-8711033Y16305183D01*
X-8892035Y16110110D01*
X-9041940Y15890240D01*
X-9157401Y15650482D01*
X-9235839Y15396194D01*
X-9275500Y15133055D01*
X-9275500Y14866945D01*
X-11660034Y14866945D01*
X-11660034Y15183014D01*
X-11699608Y15546902D01*
X-11778291Y15904358D01*
X-11778291Y15904360D01*
X-11895169Y16251241D01*
X-12048859Y16583436D01*
X-12155451Y16760593D01*
X-12237566Y16897069D01*
X-12459077Y17188462D01*
X-12459079Y17188465D01*
X-12710789Y17454191D01*
X-12710799Y17454201D01*
X-12989761Y17691153D01*
X-12989768Y17691159D01*
X-13292726Y17896570D01*
X-13616117Y18068021D01*
X-13956149Y18203502D01*
X-13956158Y18203504D01*
X-13956162Y18203506D01*
X-14308828Y18301423D01*
X-14308835Y18301425D01*
X-14670042Y18360642D01*
X-14944087Y18375500D01*
X-15126981Y18375500D01*
X-15401026Y18360642D01*
X-15762233Y18301425D01*
X-16114919Y18203502D01*
X-16454951Y18068021D01*
X-16778342Y17896570D01*
X-17081300Y17691159D01*
X-17360273Y17454197D01*
X-17611991Y17188462D01*
X-17833502Y16897069D01*
X-18022209Y16583435D01*
X-18175901Y16251236D01*
X-18292774Y15904368D01*
X-18371460Y15546897D01*
X-18411034Y15183014D01*
X-18411034Y14816986D01*
X-22535034Y14816986D01*
X-22535034Y18000000D01*
X-22518006Y18390000D01*
X-22517629Y18394304D01*
X-22466957Y18779190D01*
X-22466207Y18783445D01*
X-22382186Y19162439D01*
X-22381068Y19166613D01*
X-22264330Y19536857D01*
X-22262853Y19540917D01*
X-22114292Y19899574D01*
X-22112466Y19903490D01*
X-21933216Y20247826D01*
X-21931055Y20251568D01*
X-21722466Y20578988D01*
X-21719988Y20582528D01*
X-21483664Y20890511D01*
X-21480887Y20893821D01*
X-21218622Y21180033D01*
X-21215567Y21183088D01*
X-20929355Y21445353D01*
X-20926045Y21448130D01*
X-20618062Y21684454D01*
X-20614522Y21686932D01*
X-20287102Y21895521D01*
X-20283360Y21897682D01*
X-19939024Y22076932D01*
X-19935108Y22078758D01*
X-19576451Y22227319D01*
X-19572391Y22228796D01*
X-19202147Y22345534D01*
X-19197973Y22346652D01*
X-18818979Y22430673D01*
X-18814724Y22431423D01*
X-18429838Y22482095D01*
X-18425534Y22482472D01*
X-18035534Y22499500D01*
X-17969642Y22499500D01*
X16898574Y22499500D01*
X16964466Y22499500D01*
X17354467Y22482472D01*
G37*
%TD.AperFunction*%
%TD*%
M02*
