%TF.GenerationSoftware,KiCad,Pcbnew,7.0.6*%
%TF.CreationDate,2023-09-17T17:39:24+01:00*%
%TF.ProjectId,working,776f726b-696e-4672-9e6b-696361645f70,rev?*%
%TF.SameCoordinates,Original*%
%TF.FileFunction,Paste,Top*%
%TF.FilePolarity,Positive*%
%FSLAX46Y46*%
G04 Gerber Fmt 4.6, Leading zero omitted, Abs format (unit mm)*
G04 Created by KiCad (PCBNEW 7.0.6) date 2023-09-17 17:39:24*
%MOMM*%
%LPD*%
G01*
G04 APERTURE LIST*
G04 Aperture macros list*
%AMRoundRect*
0 Rectangle with rounded corners*
0 $1 Rounding radius*
0 $2 $3 $4 $5 $6 $7 $8 $9 X,Y pos of 4 corners*
0 Add a 4 corners polygon primitive as box body*
4,1,4,$2,$3,$4,$5,$6,$7,$8,$9,$2,$3,0*
0 Add four circle primitives for the rounded corners*
1,1,$1+$1,$2,$3*
1,1,$1+$1,$4,$5*
1,1,$1+$1,$6,$7*
1,1,$1+$1,$8,$9*
0 Add four rect primitives between the rounded corners*
20,1,$1+$1,$2,$3,$4,$5,0*
20,1,$1+$1,$4,$5,$6,$7,0*
20,1,$1+$1,$6,$7,$8,$9,0*
20,1,$1+$1,$8,$9,$2,$3,0*%
%AMFreePoly0*
4,1,9,1.050000,0.350000,0.550000,0.000000,0.550000,-0.400000,0.800000,-0.650000,0.800000,-0.800000,-1.050000,-0.800000,-1.050000,0.800000,1.050000,0.800000,1.050000,0.350000,1.050000,0.350000,$1*%
%AMFreePoly1*
4,1,9,1.050000,-0.800000,-0.800000,-0.800000,-0.800000,-0.650000,-0.550000,-0.400000,-0.550000,0.000000,-1.050000,0.350000,-1.050000,0.800000,1.050000,0.800000,1.050000,-0.800000,1.050000,-0.800000,$1*%
G04 Aperture macros list end*
%ADD10RoundRect,0.100000X-0.100000X0.637500X-0.100000X-0.637500X0.100000X-0.637500X0.100000X0.637500X0*%
%ADD11R,1.000000X0.800000*%
%ADD12R,0.700000X1.500000*%
%ADD13RoundRect,0.200000X-0.200000X-0.275000X0.200000X-0.275000X0.200000X0.275000X-0.200000X0.275000X0*%
%ADD14RoundRect,0.225000X-0.250000X0.225000X-0.250000X-0.225000X0.250000X-0.225000X0.250000X0.225000X0*%
%ADD15R,0.300000X1.400000*%
%ADD16R,1.350000X0.400000*%
%ADD17FreePoly0,270.000000*%
%ADD18R,1.900000X1.900000*%
%ADD19FreePoly1,270.000000*%
%ADD20RoundRect,0.225000X-0.225000X-0.250000X0.225000X-0.250000X0.225000X0.250000X-0.225000X0.250000X0*%
%ADD21RoundRect,0.250000X-1.750000X-1.000000X1.750000X-1.000000X1.750000X1.000000X-1.750000X1.000000X0*%
G04 APERTURE END LIST*
D10*
%TO.C,IC2*%
X-14025000Y-1637500D03*
X-14675000Y-1637500D03*
X-15325000Y-1637500D03*
X-15975000Y-1637500D03*
X-15975000Y-7362500D03*
X-15325000Y-7362500D03*
X-14675000Y-7362500D03*
X-14025000Y-7362500D03*
%TD*%
D11*
%TO.C,SW1*%
X3650000Y-18720000D03*
X-3650000Y-20930000D03*
X3650000Y-20930000D03*
X-3650000Y-18720000D03*
D12*
X-2250000Y-18070000D03*
X750000Y-18070000D03*
X2250000Y-18070000D03*
%TD*%
D13*
%TO.C,R3*%
X-16325000Y500000D03*
X-14675000Y500000D03*
%TD*%
D14*
%TO.C,C1*%
X3000000Y2500000D03*
X3000000Y950000D03*
%TD*%
D15*
%TO.C,IC1*%
X1000000Y2200000D03*
X500000Y2200000D03*
X0Y2200000D03*
X-500000Y2200000D03*
X-1000000Y2200000D03*
X-1000000Y-2200000D03*
X-500000Y-2200000D03*
X0Y-2200000D03*
X500000Y-2200000D03*
X1000000Y-2200000D03*
%TD*%
D13*
%TO.C,R1*%
X1175000Y-4000000D03*
X2825000Y-4000000D03*
%TD*%
%TO.C,R2*%
X1350000Y4500000D03*
X3000000Y4500000D03*
%TD*%
D16*
%TO.C,CON1*%
X-18825000Y4475000D03*
X-18825000Y3825000D03*
X-18825000Y3175000D03*
X-18825000Y2525000D03*
X-18825000Y1875000D03*
D17*
X-18950000Y6275000D03*
D18*
X-21500000Y4375000D03*
X-21500000Y1975000D03*
D19*
X-18950000Y75000D03*
%TD*%
D16*
%TO.C,CON2*%
X-18825000Y-10525000D03*
X-18825000Y-11175000D03*
X-18825000Y-11825000D03*
X-18825000Y-12475000D03*
X-18825000Y-13125000D03*
D17*
X-18950000Y-8725000D03*
D18*
X-21500000Y-10625000D03*
X-21500000Y-13025000D03*
D19*
X-18950000Y-14925000D03*
%TD*%
D20*
%TO.C,C2*%
X-9775000Y-9500000D03*
X-8225000Y-9500000D03*
%TD*%
D21*
%TO.C,C3*%
X-10600000Y-4000000D03*
X-4500000Y-4000000D03*
%TD*%
M02*
